<svg viewBox="0 0 425 425" class="scaling-svg"><g><g><a class="design" href="/design"><g><title>Design</title><path d="M158,83.9l-35.2-31.4C96.3,67.8,73.3,90,56.5,118.2c-14.6,24.6-22.9,51.2-25.4,78 l44.4-14.9l67.1,21.6c1.4-9.5,4.6-18.9,9.8-27.6c5-8.4,11.4-15.4,18.6-21L158,83.9z M118.9, 48.8l-14.5-13C77.3,52.9,53.7,76.5,36.2,106c-18.4,31-27.9,64.8-29.3,98.3l19.1-6.4c2.2-28.2, 10.8-56.3,26.2-82.3C69.1,87.2,92.3,64.7,118.9,48.8z"></path><path class="designTxt" d="M21.4,151.2c0.2-0.5,0.4-1,0.7-1.4s0.7-0.7,1.1-1c0.5-0.2, 1-0.4,1.5-0.4c0.6,0,1.2,0.1,1.9,0.3c0.6,0.2,1.1,0.4,1.6,0.8c0.5,0.3,0.8,0.7,1.1,1.1c0.3, 0.4,0.4,0.9,0.5,1.5c0.1,0.5,0,1.1-0.2,1.8l-1.1,3.6l-8.3-2.6L21.4,151.2zM28.2,153.5c0.1-0.3, 0.1-0.5,0.1-0.8s-0.1-0.5-0.2-0.8s-0.4-0.5-0.6-0.7c-0.3-0.2-0.6-0.4-1.1-0.5c-0.4-0.1-0.8-0.2-1.2-0.2 c-0.4,0-0.7,0-1,0.1s-0.6,0.3-0.8,0.6c-0.2,0.3-0.4,0.6-0.5,1.1l-0.4,1.3l5.2,1.6L28.2,153.5z M28.2,132.7l1.5,0.6l-1.7,4.3l1.7,0.7l1.6-3.9l1.4,0.6l-1.6,3.9l2,0.8l1.8-4.4l1.5,0.6l-2.5,6.1 l-8.1-3.3L28.2,132.7z M38.6,125.9c0.2,0,0.4-0.1,0.6-0.2c0.2-0.1,0.4-0.2,0.5-0.4c0.2-0.2,0.3-0.4,0.4-0.6 c0.1-0.2,0.2-0.3,0.2-0.5c0.1-0.2,0.1-0.4,0.1-0.6s0-0.4-0.1-0.5c-0.1-0.2-0.2-0.3-0.4-0.4s-0.4-0.1-0.6-0.1 c-0.2,0.1-0.4,0.2-0.6,0.4c-0.2,0.2-0.4,0.4-0.6,0.6c-0.2,0.2-0.4,0.5-0.6,0.7c-0.2,0.2-0.5,0.5-0.7,0.7s-0.5,0.4-0.8,0.5 s-0.6,0.2-0.9,0.2c-0.3,0-0.7-0.1-1-0.3c-0.4-0.2-0.7-0.5-0.9-0.8s-0.3-0.7-0.4-1c-0.1-0.4,0-0.8,0-1.2c0.1-0.4,0.2-0.8,0.4-1.1 c0.2-0.4,0.5-0.8,0.7-1.1s0.6-0.6,0.9-0.8s0.7-0.3,1.1-0.3s0.8,0.1,1.3,0.3l-0.8,1.7c-0.2-0.1-0.5-0.2-0.7-0.1 c-0.2,0-0.4,0.1-0.5,0.2c-0.2,0.1-0.3,0.2-0.4,0.4c-0.1,0.2-0.2,0.3-0.3,0.6c-0.1,0.1-0.1,0.3-0.2,0.4c0,0.2,0,0.3,0,0.4 c0,0.2,0.1,0.3,0.1,0.4s0.2,0.2,0.4,0.3c0.2,0.1,0.3,0.1,0.4,0.1s0.3-0.1,0.4-0.2s0.4-0.3,0.6-0.6c0.2-0.3,0.5-0.6,0.9-1 c0.1-0.1,0.3-0.3,0.5-0.5s0.5-0.4,0.8-0.6s0.6-0.3,1-0.3s0.8,0,1.2,0.3c0.4,0.2,0.7,0.4,0.9,0.7c0.2,0.3,0.4,0.6,0.5,1 s0.1,0.8,0,1.3s-0.2,1-0.5,1.5c-0.2,0.4-0.5,0.8-0.8,1.2s-0.7,0.6-1,0.8c-0.4,0.2-0.8,0.3-1.2,0.3s-0.9-0.1-1.4-0.4l0.8-1.7 C38.1,125.9,38.4,125.9,38.6,125.9z M40.4,108.8l7.5,4.4l-1,1.7l-7.5-4.4L40.4,108.8z M55.5,101.3c-0.1,0.4-0.3,0.8-0.5,1.2c-0.4,0.6-0.8,1-1.3,1.3s-1,0.5-1.6,0.6 c-0.5,0.1-1.1,0-1.7-0.1c-0.6-0.2-1.1-0.4-1.6-0.8s-1-0.8-1.3-1.3s-0.6-1-0.7-1.5c-0.1-0.5-0.2-1.1,0-1.7c0.1-0.6,0.3-1.1,0.7-1.7 c0.2-0.4,0.5-0.7,0.9-1c0.3-0.3,0.7-0.5,1.1-0.6c0.4-0.1,0.8-0.2,1.3-0.1s0.9,0.2,1.3,0.4l-1,1.5c-0.5-0.2-0.9-0.2-1.3-0.1 c-0.4,0.1-0.7,0.4-1,0.8c-0.2,0.4-0.4,0.7-0.4,1.1c0,0.3,0,0.7,0.1,1s0.3,0.6,0.6,0.9s0.5,0.5,0.8,0.7s0.6,0.4,1,0.5s0.7,0.2,1,0.2 s0.7-0.1,1-0.2c0.3-0.2,0.6-0.4,0.8-0.8c0.4-0.5,0.5-1,0.4-1.5s-0.3-0.9-0.8-1.3l-1.1,1.6L51,99.6l2.1-3l3.9,2.7l-0.7,1l-0.9-0.4 C55.5,100.4,55.6,100.9,55.5,101.3z M56.7,85.3l6.8,0.9l0,0L59,82.4l1.1-1.4l6.8,5.5L65.7,88l-6.8-0.9l0,0l4.5,3.7l-1.1,1.4l-6.8-5.5 L56.7,85.3z"></path><path class="designIcon" d="M128.7,108.1l-4.8,3.6l-4.8,11.2h-3.9l-1.5-3.3h1c1.8,0,3.3-1.5,3.3-3.3V113h1.6v-4.9h-4.9 v4.9h1.6v3.3c0,0.9-0.7,1.6-1.6,1.6H113l-2.1-4.5l2.5-1.3l-8.2-3.5l-1.9,6.8c-0.1-4-3.3-7.3-7.4-7.3s-7.4,3.3-7.4,7.4 c0,2.5,1.2,4.8,3.3,6.1v1.2h-2l-0.1,0.7c-0.4,2.1-0.4,4.2-0.1,6.3l-5.6,10l6.2,1.4v10.3h8.2v7.4H118v-11.4c5.7-4.1,9-10.6,9-17.6 v-3c0-1.1-0.1-2.3-0.3-3.4l-0.1-0.7H125l3.7-8.8V108.1L128.7,108.1z M116.4,111.4v-1.6h1.6v1.6H116.4z M113.4,122.9h-3.1l-1.5-3.3 h3.1L113.4,122.9z M106.2,110.9l3.3,1.4l-0.8,0.4l2.4,5.3H108l-2-4.4l-0.7,0.4L106.2,110.9z M108.5,122.9h-3.6v-1.6 c0-0.9,0.7-1.7,1.6-1.7h0.5l0,0L108.5,122.9z M105.3,115.8l1,2.2c-1.7,0.1-3.1,1.5-3.1,3.3v1.6H100v-1.2c1.6-1.1,2.8-2.8,3.1-4.7 L105.3,115.8z M90.1,115.5c0-3.2,2.6-5.7,5.7-5.7c3.2,0,5.7,2.6,5.7,5.7c0,2-1.1,3.9-2.9,5l-0.4,0.2v2.2h-1.6v-5.1 c1-0.3,1.6-1.2,1.6-2.3c0-1.4-1.1-2.5-2.5-2.5s-2.5,1.1-2.5,2.5c0,1.1,0.7,2,1.6,2.3v5.1h-1.6v-2.2l-0.4-0.2 C91.2,119.4,90.1,117.5,90.1,115.5z M95.9,116.3c-0.5,0-0.8-0.4-0.8-0.8c0-0.5,0.4-0.8,0.8-0.8c0.5,0,0.8,0.4,0.8,0.8 S96.3,116.3,95.9,116.3z M125.2,124.5c0.1,0.8,0.2,1.7,0.2,2.5v3c0,6.6-3.2,12.7-8.7,16.5l-0.4,0.2v10.6H100v-7.4h-8.2v-10 l-5.3-1.2l4.8-8.6v-0.3c-0.3-1.8-0.3-3.7-0.1-5.4h0.6h8.2L125.2,124.5L125.2,124.5z M123.2,122.9h-2.3l4.1-9.5l1.8,0.9L123.2,122.9 z M127,112.5l-0.9-0.5l0.9-0.7V112.5z M97.5,129.4c-1.4,0-2.5-0.8-2.5-2.5h-1.6c0,2.5,1.8,4.1,4.1,4.1s4.1-1.6,4.1-4.1H100 C100,128.6,98.9,129.4,97.5,129.4z"></path></g></a></g><text x="245" y="-194" font-size="18" fill="red" transform="rotate(40)">Interact with me!</text><g><a class="resourceExtraction" href="/resource-extraction"><g><title>Resource extraction</title><path d="M217.4,27.5c-28.6-0.4-55.8,5.8-80.2,17l35.1,31l14.9,68.9c8.9-3.6,18.6-5.5,28.8-5.4 c9.8,0.1,19,2.1,27.6,5.6L298,98.2l9.6-46.2C280.9,36.8,250.1,27.9,217.4,27.5z M217.4,22.5c33.1,0.4,64.1,9.2,91.2,24.4l4-19.1c-28.4-14.9-60.6-23.5-94.9-24 c-36-0.5-69.9,8.2-99.7,23.7l15,13.4C158.6,28.8,187.2,22.1,217.4,22.5z"></path><path class="resourceTxt" d="M135.2,26c0.4-0.2,0.7-0.2,1-0.2s0.6,0,0.9,0.1c0.3,0.1,0.6,0.3,0.8,0.5s0.4,0.5,0.5,0.8 c0.2,0.5,0.3,0.9,0.2,1.4c-0.1,0.4-0.2,0.8-0.6,1.2l0,0c0.2,0,0.5,0,0.7,0c0.2,0.1,0.4,0.1,0.5,0.3c0.2,0.1,0.3,0.3,0.4,0.5 c0.1,0.2,0.2,0.4,0.4,0.6c0.1,0.1,0.1,0.3,0.2,0.4s0.2,0.3,0.3,0.5c0.1,0.2,0.2,0.3,0.3,0.5s0.2,0.2,0.4,0.3l-1.8,0.8 c-0.2-0.2-0.4-0.5-0.6-0.8s-0.4-0.7-0.6-1c-0.2-0.4-0.5-0.6-0.8-0.8s-0.6-0.1-1.1,0.1l-1.8,0.8l1.4,3.1l-1.8,0.8l-3.5-8L135.2,26z M136.2,29.9c0.4-0.2,0.7-0.4,0.8-0.7s0.1-0.6-0.1-1c-0.2-0.4-0.4-0.6-0.7-0.7s-0.6,0-1,0.1l-1.9,0.9l1,2.2L136.2,29.9z M146.6,21.4l0.6,1.5l-4.3,1.6l0.7,1.8l3.9-1.5l0.5,1.4l-3.9,1.5l0.8,2l4.4-1.7l0.6,1.5l-6.2,2.4 l-3.1-8.1L146.6,21.4z M152.8,26.2c0.2,0.2,0.4,0.3,0.6,0.3c0.2,0.1,0.4,0.1,0.7,0.1s0.5-0.1,0.7-0.1s0.3-0.1,0.5-0.2 s0.3-0.2,0.5-0.3s0.2-0.3,0.3-0.5s0.1-0.4,0-0.6s-0.2-0.4-0.4-0.5s-0.4-0.1-0.7-0.2c-0.3,0-0.6,0-0.9,0c-0.3,0-0.6,0-1,0.1 c-0.3,0-0.7,0-1,0s-0.6-0.1-0.9-0.2s-0.6-0.3-0.8-0.5s-0.4-0.5-0.5-0.9s-0.2-0.8-0.1-1.2s0.2-0.7,0.5-1c0.2-0.3,0.5-0.6,0.9-0.8 c0.3-0.2,0.7-0.4,1.1-0.5c0.4-0.1,0.9-0.2,1.3-0.3c0.4,0,0.8,0,1.2,0.1s0.7,0.3,1,0.6s0.5,0.7,0.7,1.1l-1.8,0.6 c-0.1-0.2-0.2-0.4-0.4-0.6s-0.3-0.2-0.5-0.3c-0.2,0-0.4,0-0.6,0c-0.2,0-0.4,0.1-0.6,0.1c-0.1,0-0.3,0.1-0.4,0.2s-0.2,0.2-0.4,0.3 c-0.1,0.1-0.2,0.2-0.2,0.4s0,0.3,0,0.5c0.1,0.2,0.1,0.3,0.2,0.4s0.2,0.1,0.5,0.2c0.2,0,0.5,0,0.8,0c0.4,0,0.8,0,1.4-0.1 c0.2,0,0.4,0,0.7,0s0.6,0,0.9,0.1s0.6,0.2,0.9,0.5s0.5,0.6,0.7,1c0.1,0.4,0.2,0.8,0.1,1.1s-0.2,0.7-0.4,1.1s-0.5,0.6-0.9,0.9 s-0.9,0.5-1.4,0.7c-0.5,0.1-0.9,0.2-1.4,0.3s-0.9,0-1.3-0.1s-0.8-0.4-1.1-0.7c-0.3-0.3-0.6-0.7-0.7-1.2l1.8-0.6 C152.5,25.8,152.6,26.1,152.8,26.2z M158.9,20c0-0.6,0.2-1.1,0.4-1.6s0.6-0.9,1-1.3s1-0.6,1.6-0.8s1.3-0.2,1.8-0.1c0.6,0.1,1.1,0.3,1.6,0.6 c0.5,0.3,0.9,0.7,1.2,1.2s0.6,1,0.8,1.7c0.2,0.6,0.2,1.2,0.2,1.8c0,0.6-0.2,1.1-0.4,1.6s-0.6,0.9-1,1.3s-1,0.6-1.6,0.8 s-1.3,0.2-1.8,0.1c-0.6-0.1-1.1-0.3-1.6-0.6c-0.5-0.3-0.9-0.7-1.2-1.2s-0.6-1-0.8-1.6C159,21.2,158.9,20.6,158.9,20z M161.4,22.4 c0.2,0.3,0.4,0.6,0.6,0.8c0.2,0.2,0.6,0.4,0.9,0.5c0.3,0.1,0.7,0.1,1.1,0c0.4-0.1,0.8-0.3,1-0.5s0.4-0.5,0.5-0.8s0.2-0.6,0.1-1 c0-0.4-0.1-0.7-0.2-1.1c-0.1-0.4-0.2-0.7-0.4-1s-0.4-0.6-0.6-0.8s-0.6-0.4-0.9-0.5s-0.7-0.1-1.1,0c-0.4,0.1-0.8,0.3-1,0.5 s-0.4,0.5-0.5,0.8s-0.1,0.7-0.1,1s0.1,0.7,0.2,1.1C161.1,21.7,161.2,22,161.4,22.4z M177.1,21.2c-0.5,0.7-1.4,1.2-2.5,1.4c-1.2,0.2-2.1,0.2-2.9-0.2s-1.3-1.2-1.5-2.4l-1.1-5.3l1.9-0.4 l1.1,5.3c0.1,0.2,0.1,0.5,0.2,0.7c0.1,0.2,0.2,0.4,0.4,0.5s0.4,0.2,0.6,0.3s0.6,0,0.9,0c0.7-0.1,1.1-0.4,1.3-0.8s0.2-0.9,0.1-1.5 l-1.1-5.3l1.9-0.4l1.1,5.3C177.7,19.6,177.6,20.5,177.1,21.2z M184.1,11.7c0.4-0.1,0.7-0.1,1.1,0s0.6,0.2,0.9,0.4s0.5,0.4,0.6,0.7s0.3,0.6,0.3,0.9 c0.1,0.5,0.1,1-0.1,1.4s-0.4,0.8-0.9,1l0,0c0.2,0,0.4,0.1,0.6,0.2c0.2,0.1,0.3,0.2,0.5,0.4s0.2,0.4,0.3,0.6s0.1,0.4,0.2,0.6 c0,0.1,0.1,0.3,0.1,0.5s0.1,0.4,0.1,0.6c0.1,0.2,0.1,0.4,0.2,0.5s0.2,0.3,0.3,0.4l-1.9,0.3c-0.1-0.2-0.3-0.6-0.4-0.9 s-0.2-0.7-0.3-1.1s-0.3-0.7-0.6-0.9s-0.6-0.2-1.1-0.1l-1.9,0.3l0.6,3.4l-1.9,0.3l-1.5-8.6L184.1,11.7z M184.1,15.7 c0.4-0.1,0.7-0.2,0.9-0.5c0.2-0.2,0.2-0.6,0.2-1c-0.1-0.4-0.2-0.7-0.5-0.9c-0.2-0.1-0.6-0.2-1-0.1l-2.1,0.4L182,16L184.1,15.7z M195.6,12.6c-0.1-0.2-0.3-0.3-0.5-0.4c-0.2-0.1-0.4-0.2-0.6-0.3c-0.2-0.1-0.4-0.1-0.7,0 c-0.4,0.1-0.8,0.2-1.1,0.4s-0.5,0.4-0.6,0.8s-0.3,0.6-0.3,1s-0.1,0.7,0,1.1c0,0.4,0.1,0.7,0.2,1.1c0.1,0.3,0.3,0.6,0.5,0.9 s0.5,0.5,0.8,0.6s0.7,0.2,1.1,0.1c0.6-0.1,1-0.3,1.3-0.7c0.3-0.4,0.4-0.9,0.4-1.5l1.9-0.2c0,0.6-0.1,1.1-0.2,1.5 c-0.1,0.5-0.4,0.9-0.7,1.2c-0.3,0.3-0.7,0.6-1.1,0.8s-0.9,0.4-1.4,0.4c-0.7,0.1-1.3,0-1.8-0.1c-0.6-0.2-1-0.4-1.4-0.8 s-0.7-0.8-1-1.3s-0.4-1.1-0.5-1.7c-0.1-0.6,0-1.3,0.1-1.8c0.1-0.6,0.4-1.1,0.7-1.6c0.3-0.4,0.7-0.8,1.2-1.1s1.1-0.5,1.8-0.6 c0.5-0.1,0.9,0,1.4,0.1s0.8,0.2,1.2,0.5c0.4,0.2,0.7,0.5,0.9,0.9c0.3,0.4,0.4,0.8,0.6,1.3l-1.9,0.2 C195.8,12.9,195.7,12.7,195.6,12.6z M206.9,9.4L207,11l-4.6,0.3l0.1,1.9l4.2-0.3l0.1,1.5l-4.2,0.3l0.1,2.1l4.7-0.3l0.1,1.6l-6.6,0.4 l-0.5-8.7L206.9,9.4z M221.1,9.3v1.6h-4.6v1.9h4.2v1.5h-4.2v2.1h4.7V18l-6.6-0.1l0.1-8.7L221.1,9.3z M223.4,9.3l2.2,0.1l1.6,2.9l1.9-2.7l2.1,0.1l-3,4l2.8,4.7l-2.3-0.1l-1.7-3.1l-2.1,2.9l-2.1-0.1l3.3-4.4 L223.4,9.3z M232.9,11.5l0.2-1.6l7.1,0.7l-0.2,1.6l-2.6-0.3l-0.7,7.1l-1.9-0.2l0.7-7.1L232.9,11.5z M247.4,11.7c0.4,0.1,0.7,0.2,1,0.4s0.5,0.4,0.7,0.6c0.2,0.2,0.3,0.5,0.4,0.8c0.1,0.3,0.1,0.6,0,0.9 c-0.1,0.5-0.2,0.9-0.5,1.3c-0.3,0.3-0.7,0.6-1.2,0.7l0,0c0.2,0.1,0.4,0.2,0.5,0.4c0.1,0.2,0.2,0.3,0.3,0.5s0.1,0.4,0.1,0.6 s0,0.5,0,0.7c0,0.1,0,0.3-0.1,0.5s0,0.4,0,0.6s0,0.4,0,0.6s0.1,0.3,0.1,0.5l-1.9-0.3c-0.1-0.3-0.1-0.6,0-1c0-0.4,0.1-0.8,0.1-1.1 c0-0.5-0.1-0.8-0.3-1s-0.5-0.4-1-0.5l-1.9-0.3l-0.5,3.4l-1.9-0.3l1.3-8.6L247.4,11.7z M246.1,15.5c0.4,0.1,0.8,0,1-0.1 c0.2-0.2,0.4-0.5,0.5-0.9s0-0.7-0.2-1s-0.5-0.4-0.9-0.4l-2.1-0.3l-0.4,2.4L246.1,15.5z M257.2,13.5l1.4,9.2l-2-0.4l-0.3-2l-3.2-0.7l-1.1,1.8l-1.9-0.4l5-7.9L257.2,13.5z M256.2,18.8 l-0.4-3.4l0,0l-1.8,2.9L256.2,18.8z M267.5,18.4c-0.1-0.2-0.2-0.4-0.3-0.6s-0.3-0.3-0.5-0.5s-0.4-0.2-0.6-0.3c-0.4-0.1-0.8-0.1-1.1,0 c-0.3,0.1-0.6,0.2-0.9,0.5c-0.2,0.2-0.5,0.5-0.6,0.8s-0.3,0.7-0.4,1c-0.1,0.4-0.1,0.7-0.1,1.1s0,0.7,0.2,1c0.1,0.3,0.3,0.6,0.5,0.8 s0.6,0.4,1,0.5c0.6,0.1,1.1,0.1,1.5-0.2c0.4-0.3,0.7-0.7,0.9-1.2l1.8,0.5c-0.2,0.5-0.4,1-0.7,1.3c-0.3,0.4-0.7,0.7-1.1,0.9 c-0.4,0.2-0.8,0.4-1.3,0.4s-1,0-1.5-0.1c-0.6-0.2-1.2-0.4-1.7-0.8s-0.8-0.8-1.1-1.3c-0.2-0.5-0.4-1-0.5-1.6c0-0.6,0-1.2,0.2-1.8 c0.2-0.6,0.4-1.2,0.7-1.7s0.7-0.9,1.2-1.2s1-0.5,1.5-0.6c0.6-0.1,1.2-0.1,1.8,0.1c0.5,0.1,0.9,0.3,1.3,0.5s0.7,0.5,1,0.9 c0.3,0.3,0.5,0.7,0.6,1.2s0.1,0.9,0.1,1.4l-1.8-0.5C267.6,18.8,267.6,18.6,267.5,18.4z M271.8,18.8l0.5-1.5l6.8,2.1l-0.5,1.5l-2.5-0.8L274,27l-1.8-0.6l2.1-6.8L271.8,18.8z M283.2,20.9l-2.9,8.2l-1.8-0.6l2.9-8.2L283.2,20.9z M285.2,24.3c0.4-0.5,0.8-0.8,1.3-1s1-0.4,1.6-0.4s1.2,0.1,1.8,0.3c0.6,0.2,1.1,0.6,1.5,1 s0.7,0.9,0.9,1.4c0.2,0.5,0.3,1.1,0.2,1.7c0,0.6-0.2,1.2-0.4,1.8c-0.2,0.6-0.5,1.1-0.9,1.5s-0.8,0.8-1.3,1s-1,0.4-1.6,0.4 s-1.2-0.1-1.8-0.3c-0.6-0.2-1.1-0.6-1.5-1s-0.7-0.9-0.9-1.4s-0.3-1.1-0.2-1.6c0-0.6,0.1-1.2,0.4-1.8 C284.5,25.3,284.8,24.8,285.2,24.3z M285.8,27.6c0,0.4,0,0.7,0,1s0.2,0.6,0.4,0.9c0.2,0.3,0.5,0.5,0.9,0.6s0.8,0.2,1.1,0.2 c0.3,0,0.6-0.2,0.9-0.4s0.5-0.4,0.7-0.7c0.2-0.3,0.4-0.6,0.5-1s0.2-0.7,0.3-1.1c0-0.4,0-0.7,0-1c-0.1-0.3-0.2-0.6-0.4-0.9 c-0.2-0.3-0.5-0.5-0.9-0.6s-0.8-0.2-1.1-0.2c-0.3,0-0.6,0.2-0.9,0.4s-0.5,0.4-0.7,0.7c-0.2,0.3-0.4,0.6-0.5,1 C285.9,26.9,285.8,27.3,285.8,27.6z M298.3,26.9l0.9,6.8l0,0l2.5-5.3l1.6,0.8l-3.7,7.9l-1.7-0.8l-0.9-6.8l0,0l-2.5,5.3l-1.6-0.8l3.7-7.9 L298.3,26.9z"></path><path class="resourceIcon" d="M229.6,70c-0.4-1.5-1.4-3.3-2.5-4.8c-0.2-0.3-0.5-0.6-0.8-1c0.3-0.4,0.5-0.9,0.4-1.5l0,0l0,0 c0-0.2-0.1-0.3-0.3-0.6l0.2-0.3c0.6-0.6,0.8-1.2,0.8-2.1c0-0.9-0.4-1.4-1.1-2.2c-0.5-0.5-1-0.9-1.5-1.1l0,0l0,0 c-0.3-0.1-0.7-0.1-0.8-0.1l0,0c-0.8,0-1.5,0.3-2,0.8l-0.2,0.2c-0.3-0.3-0.4-0.3-0.6-0.3c-0.2,0-0.3-0.1-0.4-0.1 c-0.5,0-0.8,0.2-1.1,0.4l0,0c-2.4-2.1-5.1-3.3-7.6-3.6c-0.3,0-0.6-0.1-0.9-0.1c-0.5,0-0.8,0.1-1.1,0.2c-0.7,0.4-1.1,1.3-0.9,2.1 c0.1,0.4,0.2,0.5,3.5,3.8L215,62c-0.3,0.4-0.5,0.9-0.3,1.5c0,0.2,0.1,0.3,0.4,0.7c-0.4,0.3-0.9,0.9-1.9,1.9 c-1.2,1.2-2.9,2.9-4.7,4.7l-6.6,6.6l-0.4,0.4v0.5v0.3c0,1,0.4,2,1.2,2.7c0.7,0.7,1.7,1.2,2.7,1.2h0.3h0.5l0.4-0.4l6.6-6.6l6.6-6.6 c0.2,0.2,0.3,0.2,0.4,0.3c0.2,0.1,0.4,0.1,0.7,0.1c0.4,0,0.8-0.2,1.1-0.4l2.3,2.3c3.4,3.4,3.5,3.4,3.9,3.5c0.1,0,0.2,0,0.4,0 c0.7,0,1.3-0.4,1.6-1C230.3,72.9,229.8,70.7,229.6,70z M222.7,58.1c0.3-0.3,0.7-0.5,1.2-0.5l0,0c0.2,0,0.4,0,0.4,0 c0.3,0.1,0.6,0.3,1,0.8c0.6,0.6,0.7,0.8,0.8,1.4c0,0.5-0.1,0.8-0.4,1.2l-0.2,0.2c-0.4-0.4-0.8-0.9-1.5-1.5 c-0.6-0.6-1.1-1.1-1.5-1.5L222.7,58.1z M212,74.6l-6.6,6.6h-0.3c-0.7,0-1.4-0.3-1.9-0.8s-0.8-1.2-0.8-1.9v-0.3l6.6-6.6 c3.3-3.3,6.1-6.1,6.6-6.6c0.4,0.4,0.8,0.8,1.4,1.4c0.7,0.7,1.2,1.2,1.5,1.5L212,74.6z M228.7,73.3c-0.1,0.2-0.3,0.3-0.5,0.3h-0.1 c-0.1,0-1.3-1.2-3.3-3.2l-3.2-3.2l-0.4,0.4c-0.3,0.3-0.5,0.5-0.7,0.5c-0.1,0-0.1,0-0.2,0l0.1-0.1l-0.9-0.9l-1.5-1.5 c-1.2-1.2-1.6-1.6-1.9-1.7c-0.3-0.3-0.5-0.6-0.5-0.6c-0.1-0.2,0-0.4,0.4-0.8l0.4-0.4l-3.1-3.1c-2.1-2.1-3.2-3.2-3.2-3.3 c-0.1-0.2,0-0.5,0.3-0.6c0.1,0,0.3-0.1,0.5-0.1s0.4,0,0.7,0c2.3,0.3,4.8,1.5,7,3.3c0.3,0.2,0.5,0.5,0.6,0.6s0.2,0.2,0.2,0.2 s0.2-0.2,0.4-0.4c0.3-0.3,0.5-0.4,0.7-0.4h0.1l0,0l0,0l0.9,0.9l1.5,1.5l1.5,1.5l0.9,0.9l0,0l0,0c0.1,0.2,0,0.4-0.4,0.8 c-0.2,0.2-0.4,0.4-0.4,0.4s0.1,0.1,0.2,0.2c0.2,0.2,0.8,0.9,1.2,1.5c1,1.3,1.9,3,2.3,4.4C228.7,71.6,228.9,73,228.7,73.3z"></path><polygon class="mountainIcon" points="212.6,97.8 252.3,97.8 237.1,61.3 228.5,84.4 223.9,76.4"></polygon></g></a></g><g><a class="manufacturing" href="/manufacturing"><g><title>Manufacturing</title><path d="M376.3,121.5c-14-25-32.9-45.4-54.9-61l-9.3,45.9l-52.2,47.3 c7.5,5.9,14.1,13.4,19.1,22.3c4.8,8.5,7.7,17.6,8.9,26.7l67.4,23.9l44.8-14.8C400,181.1,392.4,150.1,376.3,121.5z M380.7,119c16.2,28.9,24.1,60.2,24.5,91.1l18.5-6.1c-1.3-32-9.9-64.3-26.7-94.2 c-17.6-31.4-42-56.5-70.4-74.5l-4,19.7C345.8,71.2,365.9,92.7,380.7,119z"></path><path class="manufacturingText" d="M345.6,55.9l-2.3,5.9l0,0l5.4-3.3l2.1,1.8l-5.7,6.6l-1.4-1.2l4-4.7l0,0l-5.6,3.3l-1.1-1l2.4-6l0,0 l-4,4.7l-1.4-1.2l5.7-6.7L345.6,55.9z M358,67.3l-3.8,8.5l-1.4-1.4l0.9-1.8l-2.3-2.3l-1.9,0.9l-1.4-1.3l8.5-3.9L358,67.3z M354.4,71.2 l1.5-3.1l0,0l-3.1,1.5L354.4,71.2z M365,74.5l-1.9,6.6l0,0l4.4-3.9l1.2,1.3l-6.5,5.8l-1.3-1.4l1.9-6.6l0,0l-4.4,3.9l-1.2-1.3l6.5-5.8 L365,74.5z M370.1,93c-0.9-0.2-1.7-0.7-2.4-1.6c-0.8-0.9-1.1-1.8-1.1-2.7s0.5-1.7,1.4-2.4l4.2-3.4l1.2,1.5 l-4.2,3.4c-0.2,0.2-0.4,0.3-0.5,0.5s-0.2,0.4-0.3,0.6c0,0.2,0,0.4,0,0.7s0.2,0.5,0.5,0.8c0.4,0.5,0.9,0.8,1.2,0.8 c0.4,0,0.9-0.2,1.4-0.6l4.2-3.4l1.2,1.5l-4.2,3.4C371.8,92.8,370.9,93.1,370.1,93z M383.9,98.5l-1.3,0.9l-2.4-3.5l-1.7,1.2l2.1,3l-1.2,0.8l-2.1-3l-3,2.1l-1.1-1.6l7.2-5L383.9,98.5z M388.6,105.9l-5.7,7.4l-1-1.7l1.3-1.6l-1.7-2.8l-2,0.4l-1-1.7l9.2-1.8L388.6,105.9z M384.1,108.8 l2.1-2.6l0,0l-3.3,0.7L384.1,108.8z M393.3,118.9c0.1-0.2,0.2-0.4,0.2-0.6s0-0.4,0-0.7s-0.1-0.4-0.2-0.7c-0.2-0.4-0.5-0.7-0.7-0.8 c-0.3-0.2-0.6-0.3-0.9-0.3s-0.7,0-1,0.1c-0.4,0.1-0.7,0.2-1,0.4c-0.3,0.2-0.6,0.4-0.9,0.6s-0.5,0.5-0.6,0.8 c-0.2,0.3-0.2,0.6-0.2,1s0.1,0.7,0.3,1.1c0.3,0.5,0.6,0.8,1.1,1s1,0.1,1.5-0.1l0.9,1.6c-0.5,0.2-1,0.3-1.5,0.4 c-0.5,0-0.9,0-1.4-0.2s-0.8-0.4-1.2-0.7c-0.4-0.3-0.7-0.7-0.9-1.2c-0.3-0.6-0.5-1.2-0.5-1.8c0-0.6,0-1.1,0.2-1.6s0.5-1,0.9-1.4 s0.9-0.8,1.4-1.1c0.6-0.3,1.2-0.5,1.7-0.6c0.6-0.1,1.1-0.1,1.7,0.1s1,0.4,1.5,0.7s0.9,0.8,1.2,1.4c0.2,0.4,0.4,0.9,0.5,1.3 s0.1,0.9,0,1.3s-0.2,0.8-0.5,1.2c-0.2,0.4-0.6,0.7-1,1l-0.9-1.6C393.1,119.3,393.2,119.1,393.3,118.9z M397,124.7l1.5-0.7l3,6.5l-1.5,0.7l-1.1-2.4l-6.5,2.9l-0.8-1.8l6.5-2.9L397,124.7z M398.2,144.1c-0.8-0.4-1.4-1.2-1.8-2.2c-0.4-1.1-0.5-2.1-0.2-2.9c0.3-0.8,1-1.4,2.1-1.9l5.1-1.9 l0.7,1.8l-5.1,1.9c-0.2,0.1-0.4,0.2-0.6,0.3s-0.4,0.3-0.5,0.5s-0.2,0.4-0.2,0.7s0,0.6,0.2,0.9c0.2,0.6,0.6,1,0.9,1.2 c0.4,0.1,0.9,0.1,1.5-0.1l5.1-1.9l0.7,1.8l-5.1,1.9C399.9,144.5,399,144.5,398.2,144.1z M409.3,152c0.1,0.4,0.2,0.7,0.1,1.1c0,0.3-0.1,0.6-0.3,0.9c-0.1,0.3-0.3,0.5-0.6,0.7s-0.5,0.4-0.8,0.4 c-0.5,0.1-1,0.2-1.4,0.1c-0.4-0.1-0.8-0.4-1.1-0.8l0,0c0,0.2,0,0.5-0.1,0.6c-0.1,0.2-0.2,0.4-0.3,0.5c-0.1,0.1-0.3,0.3-0.5,0.4 c-0.2,0.1-0.4,0.2-0.6,0.3c-0.1,0.1-0.3,0.1-0.5,0.2s-0.4,0.1-0.5,0.2c-0.2,0.1-0.4,0.2-0.5,0.3s-0.3,0.2-0.4,0.3l-0.6-1.8 c0.2-0.2,0.5-0.3,0.9-0.5c0.4-0.1,0.7-0.3,1-0.4c0.4-0.2,0.7-0.4,0.8-0.7c0.1-0.3,0.1-0.6,0-1.1l-0.6-1.8l-3.3,1l-0.6-1.8l8.3-2.6 L409.3,152z M405.4,152.6c0.1,0.4,0.3,0.7,0.6,0.9c0.2,0.1,0.6,0.2,1,0c0.4-0.1,0.7-0.3,0.8-0.6c0.1-0.3,0.1-0.6,0-1l-0.6-2 l-2.4,0.7L405.4,152.6z M412,161.7l-8.5,2.2L403,162l8.5-2.1L412,161.7z M413.7,169.2l-5,4.7l0,0l5.7-1.1l0.4,1.8l-8.6,1.7l-0.4-1.9l5-4.7l0,0l-5.7,1.1l-0.4-1.8l8.6-1.7 L413.7,169.2z M407.8,186.5c-0.2-0.4-0.4-0.8-0.4-1.2c-0.1-0.7,0-1.3,0.1-1.8c0.2-0.6,0.4-1.1,0.8-1.5s0.8-0.8,1.3-1 s1.1-0.4,1.7-0.5s1.3-0.1,1.8,0.1c0.6,0.1,1.1,0.3,1.6,0.6s0.8,0.7,1.1,1.2c0.3,0.5,0.5,1.1,0.6,1.7c0.1,0.4,0,0.9,0,1.3 c-0.1,0.4-0.2,0.8-0.4,1.2c-0.2,0.4-0.5,0.7-0.9,1s-0.8,0.5-1.3,0.6l-0.2-1.8c0.5-0.2,0.8-0.4,1-0.8s0.3-0.8,0.2-1.2 c-0.1-0.4-0.2-0.8-0.4-1.1c-0.2-0.3-0.5-0.5-0.8-0.6s-0.6-0.2-1-0.3s-0.7,0-1.1,0c-0.4,0.1-0.7,0.1-1,0.3 c-0.3,0.1-0.6,0.3-0.9,0.5s-0.4,0.5-0.6,0.8s-0.2,0.7-0.1,1.1c0.1,0.6,0.3,1.1,0.7,1.4c0.4,0.3,0.9,0.4,1.5,0.4l-0.2-1.9l1.4-0.2 l0.5,3.6l-4.7,0.6l-0.2-1.2l1-0.3C408.4,187.2,408.1,186.9,407.8,186.5z"></path><path class="manufacturingIcon" d="M328.4,163.7c4.3,0,7.8-4.2,7.8-9.4s-1.1-9.4-7.8-9.4s-7.8,4.2-7.8,9.4 C320.6,159.4,324.1,163.7,328.4,163.7z M343,177.7c-0.1-9.1-1.3-11.7-10.4-13.3c0,0-1.3,1.6-4.3,1.6s-4.3-1.6-4.3-1.6 c-9,1.6-10.2,4.2-10.4,13c0,0.7,0,0.8,0,0.7c0,0.2,0,0.4,0,1c0,0,2.2,4.4,14.7,4.4s14.7-4.4,14.7-4.4c0-0.3,0-0.6,0-0.7 C343.1,178.4,343.1,178.3,343,177.7z M341.7,160.3l-1.5-1.9c-0.4-0.5-0.4-0.8,1.3-3.5l-0.2-0.6c-2.4-1.3-2.6-1.6-2.7-1.7l-0.2-0.3 v-0.4l0.3-2.4c0.1-0.7,0.3-0.8,3.4-1.6l0.3-0.5c-1-3.1-0.9-3.4-0.4-3.8l1.9-1.4c0.5-0.4,0.8-0.4,3.6,1.3l0.6-0.1 c1.4-2.7,1.7-3,2.4-2.9l2.7,0.4l0.3,0.3c0.1,0.1,0.3,0.4,1,3.1l0.5,0.3c3-0.9,3.3-0.9,3.7-0.3l1.5,1.9c0.4,0.5,0.4,0.8-1.3,3.5 l0.2,0.6c2.4,1.3,2.6,1.6,2.7,1.7l0.2,0.3v0.4l-0.3,2.4c-0.1,0.7-0.3,0.8-3.4,1.6l-0.3,0.5c1,3.1,0.9,3.3,0.4,3.8l-1.9,1.4 c-0.5,0.4-0.8,0.4-3.6-1.3l-0.6,0.1c-1.5,2.8-1.7,3-2.4,2.9l-2.7-0.4l-0.3-0.3c-0.1-0.1-0.3-0.4-1-3.1l-0.5-0.3 C342.4,160.9,342.1,160.8,341.7,160.3z M342.1,157.7l0.8,1c0.6-0.1,1.6-0.4,2.4-0.7l0.4-0.1l1.9,1.1l0.1,0.4 c0.2,0.9,0.5,1.9,0.7,2.5l1.3,0.2c0.3-0.5,0.8-1.4,1.2-2.2l0.2-0.4l2.2-0.6l0.3,0.2c0.8,0.5,1.7,1,2.2,1.3l1-0.8 c-0.1-0.6-0.4-1.6-0.7-2.4l-0.1-0.4l1.1-1.9l0.4-0.1c0.9-0.2,1.9-0.5,2.4-0.6l0.2-1.3c-0.5-0.3-1.4-0.8-2.2-1.3l-0.4-0.2 l-0.6-2.2l0.2-0.3c0.5-0.8,1-1.7,1.3-2.2l-0.8-1c-0.6,0.1-1.6,0.4-2.4,0.7l-0.4,0.1l-1.9-1.1l-0.1-0.4 c-0.2-0.9-0.5-1.9-0.7-2.5l-1.3-0.2c-0.3,0.5-0.8,1.4-1.2,2.2l-0.2,0.4l-2.2,0.6l-0.3-0.2c-0.8-0.5-1.7-1-2.2-1.3l-1,0.8 c0.1,0.6,0.4,1.6,0.7,2.4l0.1,0.4l-1.1,1.9l-0.4,0.1c-0.9,0.2-1.9,0.5-2.4,0.6l-0.2,1.3c0.5,0.3,1.4,0.8,2.2,1.3l0.4,0.2 l0.6,2.2l-0.2,0.3C342.8,156.2,342.3,157.1,342.1,157.7z M346.7,154.9c-1.5-1.9-1.1-4.7,0.8-6.2s4.7-1.1,6.2,0.9 c1.5,1.9,1.1,4.7-0.8,6.2C350.9,157.2,348.2,156.8,346.7,154.9z M352.1,150.7c-0.9-1.1-2.4-1.4-3.5-0.5 c-1.1,0.8-1.3,2.4-0.4,3.5s2.4,1.4,3.5,0.5C352.8,153.5,353,151.9,352.1,150.7z M349.7,171.6l-0.1-0.1l-0.4-1.2c-0.2-0.5,0.1-0.8,1.1-1.7c-0.2-0.3-0.6-0.6-0.8-0.9 c-0.3-0.4-0.2-0.7-0.1-0.9l0.5-1c0.3-0.5,0.6-0.5,2-0.4l0,0c0-1.3,0.1-1.7,0.6-1.9l1.1-0.4c0.5-0.2,0.8,0.1,1.7,1.1l0,0 c1-0.9,1.3-1.2,1.8-0.9l1.2,0.6l0.1,0.2c0.2,0.2,0.2,0.3,0.1,1.7c1.4,0,1.6,0.1,1.8,0.4l0.1,0.1l0.4,1.2 c0.2,0.5-0.1,0.8-1.1,1.7c0.2,0.3,0.6,0.6,0.8,0.9c0.3,0.4,0.2,0.7,0.1,0.9l-0.5,1c-0.2,0.5-0.6,0.5-2,0.4l0,0 c0,1.3-0.1,1.7-0.7,1.9l-1.1,0.4c-0.5,0.2-0.8-0.1-1.7-1.1l0,0c-1,0.9-1.3,1.2-1.8,0.9l-1.2-0.6l-0.1-0.2 c-0.2-0.2-0.2-0.3-0.1-1.7C350.1,171.9,349.9,171.9,349.7,171.6z M350.4,170.4l0.1,0.2c0.3,0,0.7,0,1.1,0h0.4l1,1.1v0.4 c0,0.4-0.1,0.8-0.1,1.1l0.2,0.1c0.2-0.2,0.5-0.5,0.8-0.7l0.3-0.3l1.5,0.1l0.2,0.3c0.2,0.3,0.5,0.6,0.7,0.8l0.2-0.1 c0-0.3,0-0.7,0-1.1v-0.4l1.1-1h0.4c0.4,0,0.8,0.1,1.1,0.1l0.1-0.2c-0.2-0.2-0.5-0.6-0.7-0.8l-0.3-0.3l0.1-1.5l0.3-0.2 c0.3-0.2,0.6-0.5,0.8-0.7l-0.1-0.2c-0.3,0-0.7,0-1.1,0h-0.4l-1-1.1v-0.4c0-0.4,0.1-0.8,0.1-1.1l-0.2-0.1 c-0.2,0.2-0.5,0.5-0.8,0.7l-0.3,0.3l-1.5-0.1l-0.2-0.3c-0.2-0.3-0.5-0.6-0.7-0.8l-0.2,0.1c0,0.3,0,0.7,0,1.1v0.4l-1.1,1h-0.4 c-0.4,0-0.8-0.1-1.1-0.1l-0.1,0.2c0.2,0.2,0.5,0.6,0.7,0.8l0.3,0.3l-0.1,1.5l-0.3,0.2C351,169.9,350.7,170.2,350.4,170.4z M353.1,170.3c-0.2-0.2-0.3-0.4-0.4-0.7c-0.4-1.3,0.3-2.6,1.5-3.1c1-0.3,2.1,0,2.7,0.8c0.2,0.2,0.3,0.4,0.4,0.7 c0.4,1.3-0.3,2.6-1.5,3.1C354.8,171.5,353.7,171.2,353.1,170.3z M355.8,168.3c-0.2-0.3-0.6-0.4-1-0.3c-0.5,0.2-0.7,0.6-0.6,1.1 c0.1,0.4,0.7,0.7,1.1,0.5c0.5-0.2,0.7-0.6,0.6-1.1C355.9,168.5,355.8,168.4,355.8,168.3z"></path></g></a></g><g> <a class="transport" href="/transport"><title>Transport</title><path d="M374.4,306.1c14.6-24.6,22.9-51.2,25.4-78L355.4,243l-67.1-21.6 c-1.4,9.5-4.6,18.9-9.8,27.6c-5,8.4-11.4,15.4-18.6,21l13,70.4l35.2,31.4C334.6,356.5,357.7,334.3,374.4,306.1z M378.7,308.6c-16.9,28.5-40.1,50.9-66.7,66.8l14.5,13c27.1-17.1,50.7-40.7,68.2-70.2 c18.4-30.9,27.9-64.6,29.3-98.2l-19.1,6.4C402.7,254.6,394.1,282.7,378.7,308.6z"></path><path class="transportTxt" d="M349,356.9l-1.2-1.2l5.5-5.3l1.2,1.2l-2,1.9l5.2,5.5l-1.5,1.4L351,355L349,356.9z M360,343.4c0.3-0.3,0.6-0.5,0.9-0.7s0.7-0.2,1-0.3c0.3,0,0.7,0,1,0.1c0.3,0.1,0.6,0.3,0.9,0.5 c0.4,0.4,0.7,0.8,0.8,1.2s0.1,0.9-0.1,1.4l0,0c0.2-0.1,0.4-0.2,0.7-0.2c0.2,0,0.4,0,0.6,0c0.2,0.1,0.4,0.1,0.6,0.3 c0.2,0.1,0.4,0.3,0.6,0.4c0.1,0.1,0.2,0.2,0.4,0.3c0.2,0.1,0.3,0.3,0.5,0.4c0.2,0.1,0.3,0.2,0.5,0.3c0.2,0.1,0.3,0.1,0.5,0.2 l-1.4,1.5c-0.3-0.1-0.6-0.3-0.9-0.6c-0.3-0.3-0.6-0.5-0.9-0.7c-0.4-0.3-0.8-0.4-1.1-0.4c-0.3,0-0.7,0.2-1,0.6l-1.4,1.5l2.7,2.5 l-1.4,1.5l-6.8-6.3L360,343.4z M362.6,346.7c0.3-0.3,0.5-0.7,0.5-1c0-0.3-0.2-0.6-0.5-0.9c-0.3-0.3-0.7-0.4-1-0.4 c-0.3,0-0.6,0.2-0.9,0.6l-1.5,1.6l1.9,1.8L362.6,346.7z M368.2,333.7l9.4,3.1l-1.3,1.7l-2-0.7l-2.2,2.7l1.2,1.9l-1.3,1.6l-5-8.6L368.2,333.7z M372.7,337.2 l-3.4-1.2l0,0l1.9,3.1L372.7,337.2z M374.2,325.8l7.3,0.4l0,0l-5.1-3.6l1.1-1.6l7.6,5.3L384,328l-7.3-0.4l0,0l5.1,3.6l-1.1,1.6l-7.6-5.3 L374.2,325.8z M387.3,318.8c0.2,0,0.5,0,0.7-0.1c0.2-0.1,0.4-0.2,0.6-0.4c0.2-0.2,0.3-0.4,0.5-0.6 c0.1-0.2,0.2-0.3,0.3-0.5c0.1-0.2,0.1-0.4,0.1-0.6c0-0.2,0-0.4-0.1-0.6c-0.1-0.2-0.2-0.3-0.4-0.4c-0.2-0.1-0.4-0.2-0.6-0.1 c-0.2,0.1-0.4,0.2-0.7,0.3c-0.2,0.2-0.4,0.4-0.7,0.6c-0.2,0.2-0.5,0.5-0.7,0.7c-0.3,0.3-0.5,0.5-0.8,0.7c-0.3,0.2-0.6,0.4-0.9,0.5 c-0.3,0.1-0.6,0.2-1,0.2c-0.3,0-0.7-0.1-1.1-0.3c-0.4-0.2-0.7-0.5-0.9-0.9s-0.3-0.7-0.4-1.1c0-0.4,0-0.8,0.1-1.2 c0.1-0.4,0.3-0.8,0.5-1.2c0.2-0.4,0.5-0.8,0.8-1.1c0.3-0.3,0.7-0.6,1.1-0.8c0.4-0.2,0.8-0.3,1.2-0.2s0.9,0.2,1.3,0.4l-1,1.7 c-0.2-0.1-0.5-0.2-0.7-0.2c-0.2,0-0.4,0-0.6,0.1c-0.2,0.1-0.3,0.2-0.5,0.4c-0.1,0.2-0.3,0.3-0.4,0.6c-0.1,0.1-0.2,0.3-0.2,0.5 s-0.1,0.3-0.1,0.5c0,0.2,0,0.3,0.1,0.5c0.1,0.1,0.2,0.3,0.4,0.4c0.2,0.1,0.3,0.1,0.4,0.1c0.1,0,0.3-0.1,0.5-0.2 c0.2-0.1,0.4-0.3,0.7-0.6c0.3-0.3,0.6-0.6,1-1c0.1-0.1,0.3-0.3,0.5-0.5c0.2-0.2,0.5-0.4,0.8-0.6c0.3-0.2,0.7-0.3,1.1-0.3 c0.4,0,0.8,0.1,1.3,0.4c0.4,0.2,0.7,0.5,0.9,0.8c0.2,0.3,0.4,0.7,0.4,1.1s0,0.9-0.1,1.4s-0.3,1-0.7,1.6c-0.3,0.4-0.6,0.8-0.9,1.2 c-0.4,0.3-0.7,0.6-1.2,0.8c-0.4,0.2-0.9,0.3-1.3,0.2c-0.5,0-0.9-0.2-1.4-0.5l1-1.7C386.8,318.7,387.1,318.8,387.3,318.8z M388.6,302.3c0.3-0.5,0.6-0.9,0.9-1.2s0.7-0.5,1.1-0.6c0.4-0.1,0.7-0.1,1.1-0.1 c0.4,0.1,0.7,0.2,1.1,0.4c0.3,0.2,0.6,0.4,0.9,0.7s0.5,0.6,0.6,0.9c0.1,0.4,0.2,0.8,0.1,1.2s-0.2,0.9-0.5,1.4l-1,1.9l2.9,1.6 l-1,1.8l-8.2-4.3L388.6,302.3z M392.2,304.9c0.1-0.2,0.2-0.4,0.3-0.6c0.1-0.2,0.1-0.4,0.1-0.6s-0.1-0.4-0.2-0.5 c-0.1-0.2-0.3-0.3-0.6-0.5c-0.3-0.1-0.5-0.2-0.7-0.2c-0.2,0-0.4,0.1-0.6,0.2c-0.2,0.1-0.3,0.2-0.4,0.4s-0.3,0.4-0.4,0.6L389,305 l2.5,1.3L392.2,304.9z M394.8,296.3c-0.5-0.4-0.8-0.9-1.1-1.5c-0.2-0.5-0.4-1.1-0.4-1.7c0-0.6,0.1-1.3,0.4-1.9 c0.3-0.7,0.7-1.2,1.1-1.6c0.5-0.4,1-0.7,1.5-0.9s1.2-0.2,1.8-0.2s1.3,0.2,1.9,0.5c0.6,0.3,1.2,0.6,1.6,1.1s0.8,0.9,1,1.4 c0.2,0.5,0.4,1.1,0.3,1.7c0,0.6-0.2,1.3-0.4,1.9c-0.3,0.6-0.7,1.2-1.1,1.6c-0.5,0.4-1,0.7-1.5,0.9s-1.1,0.2-1.8,0.2 c-0.6,0-1.2-0.2-1.9-0.5C395.8,297.1,395.2,296.7,394.8,296.3z M398.3,295.8c0.4,0.1,0.7,0.1,1.1,0c0.4-0.1,0.7-0.2,1-0.4 c0.3-0.2,0.5-0.5,0.7-1s0.3-0.8,0.2-1.2s-0.1-0.7-0.3-1c-0.2-0.3-0.4-0.6-0.7-0.8c-0.3-0.2-0.6-0.4-1-0.6c-0.4-0.2-0.8-0.3-1.1-0.4 s-0.8-0.1-1.1,0c-0.4,0.1-0.7,0.2-1,0.4c-0.3,0.2-0.5,0.5-0.7,1c-0.2,0.4-0.3,0.8-0.2,1.2s0.1,0.7,0.3,1c0.2,0.3,0.4,0.6,0.8,0.8 c0.3,0.2,0.7,0.4,1,0.6C397.6,295.6,398,295.7,398.3,295.8z M399.4,277.7c0.1-0.4,0.3-0.7,0.6-1c0.2-0.3,0.5-0.5,0.8-0.6c0.3-0.1,0.6-0.2,1-0.2 c0.3,0,0.7,0,1,0.2c0.5,0.2,0.9,0.5,1.2,0.8s0.5,0.8,0.5,1.4l0,0c0.2-0.2,0.3-0.4,0.5-0.5c0.2-0.1,0.4-0.2,0.6-0.2 c0.2,0,0.4,0,0.7,0s0.5,0.1,0.7,0.2c0.1,0,0.3,0.1,0.5,0.2c0.2,0.1,0.4,0.1,0.6,0.2s0.4,0.1,0.6,0.1c0.2,0,0.4,0,0.5,0l-0.7,1.9 c-0.3,0-0.7-0.1-1.1-0.2s-0.8-0.2-1.1-0.3c-0.5-0.1-0.9-0.1-1.2,0c-0.3,0.1-0.5,0.4-0.7,0.9l-0.7,1.9l3.4,1.2l-0.7,1.9l-8.7-3.2 L399.4,277.7z M403.1,279.8c0.2-0.4,0.2-0.8,0.1-1.1c-0.1-0.3-0.4-0.5-0.8-0.7c-0.4-0.2-0.8-0.2-1,0c-0.3,0.1-0.5,0.4-0.6,0.9 l-0.8,2.1l2.5,0.9L403.1,279.8z M403.4,271.5l-1.6-0.5l2.2-7.3l1.6,0.5l-0.8,2.7l7.3,2.2l-0.6,2l-7.3-2.2L403.4,271.5z"></path><path class="transportIcon" d="M342.4,271.3c-0.3-0.3-0.7-0.5-1.2-0.5h-27c-0.5,0-0.9,0.2-1.2,0.5 c-0.3,0.3-0.5,0.7-0.5,1.2v5.1h-4.2c-0.5,0-1,0.1-1.5,0.3c-0.6,0.2-1,0.5-1.3,0.8l-5.2,5.2c-0.2,0.2-0.4,0.5-0.6,0.8 s-0.3,0.6-0.4,0.8c-0.1,0.2-0.1,0.6-0.2,1c0,0.4-0.1,0.7-0.1,0.9c0,0.2,0,0.5,0,1s0,0.8,0,0.9v8.4c-0.5,0-0.9,0.2-1.2,0.5 c-0.3,0.3-0.5,0.7-0.5,1.2c0,0.3,0,0.5,0.1,0.7s0.2,0.4,0.4,0.5c0.2,0.1,0.3,0.2,0.4,0.3c0.1,0.1,0.3,0.1,0.6,0.2 c0.3,0,0.5,0,0.6,0.1c0.1,0,0.3,0,0.7,0c0.3,0,0.5,0,0.6,0h1.7c0,1.9,0.7,3.5,2,4.8s2.9,2,4.8,2s3.5-0.7,4.8-2s2-2.9,2-4.8h10 c0,1.9,0.7,3.5,2,4.8s2.9,2,4.8,2s3.5-0.7,4.8-2s2-2.9,2-4.8c0.1,0,0.3,0,0.6,0c0.3,0,0.6,0,0.7,0s0.3,0,0.6-0.1 c0.3,0,0.5-0.1,0.6-0.2s0.3-0.2,0.4-0.3c0.2-0.1,0.3-0.3,0.4-0.5s0.1-0.4,0.1-0.7v-27C342.9,272,342.7,271.6,342.4,271.3z M311.5,303.5c-0.7,0.7-1.5,1-2.4,1s-1.7-0.3-2.4-1c-0.7-0.7-1-1.5-1-2.4s0.3-1.7,1-2.4c0.7-0.7,1.5-1,2.4-1s1.7,0.3,2.4,1 c0.7,0.7,1,1.5,1,2.4S312.2,302.8,311.5,303.5z M312.5,287.6h-10.1v-0.8c0-0.2,0.1-0.4,0.2-0.6l5.1-5.1c0.2-0.2,0.4-0.2,0.6-0.2h4.2 L312.5,287.6L312.5,287.6z M335.1,303.5c-0.7,0.7-1.5,1-2.4,1s-1.7-0.3-2.4-1c-0.7-0.7-1-1.5-1-2.4s0.3-1.7,1-2.4 c0.7-0.7,1.5-1,2.4-1s1.7,0.3,2.4,1c0.7,0.7,1,1.5,1,2.4S335.8,302.8,335.1,303.5z"></path></a></g><g><a class="use" href="/use"><title>Use</title><path d="M213.6,396.8c28.6,0.4,55.8-5.8,80.2-17l-35.1-31l-14.9-68.9c-8.9,3.6-18.6,5.5-28.8,5.4 c-9.8-0.1-19-2.1-27.6-5.6L133,326l-9.6,46.2C150.1,387.5,180.8,396.4,213.6,396.8z M213.5,401.8c-33.1-0.4-64.1-9.2-91.2-24.4l-3.9,19.1c28.4,14.9,60.6,23.5,94.9,24 c36,0.5,69.9-8.2,99.7-23.7l-15.1-13.3C272.3,395.5,243.7,402.2,213.5,401.8z "></path><path class="useTxt" d="M199.9,415.3c-0.8,0.5-1.7,0.8-3,0.7c-1.2-0.1-2.2-0.5-2.8-1.1s-0.9-1.6-0.8-2.9l0.5-5.8l2,0.2 l-0.5,5.8c0,0.2,0,0.5,0,0.7s0.1,0.5,0.2,0.7c0.1,0.2,0.3,0.4,0.5,0.5s0.6,0.2,1,0.2c0.7,0.1,1.2-0.1,1.5-0.4s0.5-0.8,0.5-1.5 l0.5-5.8l2,0.2l-0.5,5.8C201.1,413.8,200.6,414.7,199.9,415.3z  M212.4,414.1c0.1,0.2,0.3,0.4,0.5,0.5s0.4,0.2,0.7,0.3s0.5,0.1,0.8,0.1c0.2,0,0.4,0,0.6,0 c0.2,0,0.4-0.1,0.6-0.2c0.2-0.1,0.3-0.2,0.4-0.4s0.2-0.4,0.2-0.6s-0.1-0.5-0.2-0.6c-0.2-0.1-0.4-0.3-0.6-0.4s-0.6-0.2-0.9-0.3 s-0.7-0.1-1-0.2c-0.4-0.1-0.7-0.2-1-0.3s-0.6-0.3-0.9-0.5c-0.3-0.2-0.5-0.4-0.6-0.7c-0.2-0.3-0.2-0.7-0.3-1.1 c0-0.5,0.1-0.9,0.3-1.2c0.2-0.4,0.5-0.6,0.8-0.9c0.3-0.2,0.7-0.4,1.1-0.5s0.8-0.2,1.2-0.2c0.5,0,0.9,0,1.4,0.1s0.9,0.3,1.2,0.5 c0.4,0.2,0.6,0.5,0.8,0.9s0.3,0.8,0.3,1.4h-2c0-0.3-0.1-0.5-0.2-0.7s-0.2-0.3-0.4-0.4s-0.4-0.2-0.6-0.2s-0.4-0.1-0.7,0 c-0.2,0-0.3,0-0.5,0.1s-0.3,0.1-0.4,0.2s-0.2,0.2-0.3,0.3c-0.1,0.1-0.1,0.3-0.1,0.5s0,0.3,0.1,0.4s0.2,0.2,0.4,0.3 c0.2,0.1,0.5,0.2,0.9,0.3s0.8,0.2,1.4,0.3c0.2,0,0.4,0.1,0.7,0.2s0.6,0.2,0.9,0.4s0.6,0.5,0.8,0.8s0.3,0.8,0.4,1.3 c0,0.4-0.1,0.8-0.2,1.2c-0.2,0.4-0.4,0.7-0.7,1s-0.7,0.5-1.2,0.6s-1,0.2-1.7,0.2c-0.5,0-1,0-1.5-0.2c-0.5-0.1-0.9-0.3-1.3-0.6 s-0.7-0.6-0.9-1s-0.3-0.9-0.3-1.5h2C212.3,413.7,212.3,413.9,212.4,414.1z M233.7,406.1l0.1,1.7l-4.9,0.4l0.2,2l4.5-0.4l0.1,1.6l-4.5,0.4l0.2,2.3l5-0.4l0.1,1.7l-7,0.6 l-0.8-9.2L233.7,406.1z"></path><path class="useIcon" d="M222.4,356.2l-6.6-14.5c-0.5-1-1.4-1.8-2.4-2.1v-14.1c0-1.8-1.4-3.2-3.2-3.2h-21.6 c-1.8,0-3.2,1.4-3.2,3.2v38.9c0,1.8,1.4,3.2,3.2,3.2h21.6c0.1,0,0.3,0,0.4,0l2.2,1.3c0.4,0.3,0.9,0.4,1.4,0.4c1,0,1.8-0.5,2.3-1.3 l5.7-9.2C222.7,358,222.7,357,222.4,356.2z M188.2,358.2v-30.4h22.2v12.1c-0.7,0.3-1.2,0.9-1.6,1.4c-0.5,0.8-0.7,1.7-0.6,2.5l-7-4.3 c-0.8-0.4-1.5-0.6-2.3-0.6c-1.4,0-2.7,0.7-3.4,1.9c-1.2,1.9-0.6,4.4,1.3,5.5l3.6,2.2c-0.7,1.1-0.8,2.4-0.4,3.5 c-0.2,0.2-0.5,0.5-0.6,0.8c-1,1.6-0.7,3.5,0.5,4.8c-0.1,0.2-0.1,0.4-0.1,0.6H188.2z M201.9,362.9c0,1.4-1.2,2.6-2.6,2.6 c-1.4,0-2.6-1.2-2.6-2.6c0-1.4,1.2-2.6,2.6-2.6c0.3,0,0.6,0.1,0.9,0.2c0.3,0.6,0.8,1.2,1.5,1.6l0.1,0 C201.8,362.4,201.9,362.6,201.9,362.9z M220.5,357.8l-5.7,9.2c-0.2,0.3-0.4,0.4-0.7,0.4c-0.1,0-0.3,0-0.4-0.1l-11.1-6.8 c-0.8-0.5-1.1-1.5-0.9-2.3h0c0.1-0.2,0.1-0.4,0.2-0.6c0.1-0.2,0.3-0.4,0.5-0.5l-0.7-0.4c-1-0.6-1.3-1.9-0.7-2.9c0.4-0.6,1.1-1,1.8-1 c0.4,0,0.7,0.1,1.1,0.3l-1.2-0.7c-1-0.6-1.3-1.9-0.7-2.9c0.4-0.6,1.1-1,1.8-1c0.2,0,0.3,0,0.5,0.1l-6.4-3.9c-1-0.6-1.3-1.9-0.7-2.9 c0.4-0.6,1-1,1.7-1c0.4,0,0.7,0.1,1.1,0.3l11.6,7.2h0.1h0.1c0-0.1,0-0.1,0-0.2l-1.7-3.8c-0.3-0.7-0.2-1.4,0.1-2 c0.1-0.1,0.1-0.2,0.2-0.2v0.1c0.2-0.3,0.4-0.5,0.8-0.6c0.7-0.3,1.6-0.2,2.2,0.3v0c0.2,0.2,0.4,0.4,0.5,0.6l6.6,14.5 C220.6,357.2,220.6,357.5,220.5,357.8z"></path></a></g><g><a class="endOfLife" href="/end-of-life"><title>End of life</title><path d="M54.6,302.8c14,25,32.9,45.5,54.8,61l9.3-45.9l52.2-47.3c-7.5-5.9-14.1-13.4-19.1-22.3 c-4.8-8.5-7.7-17.6-8.9-26.7l-67.4-23.9l-44.8,14.8C30.9,243.2,38.6,274.2,54.6,302.8z M50.3,305.3c-16.2-28.9-24.1-60.2-24.5-91.1l-18.5,6.1c1.3,32,9.9,64.3,26.7,94.2 c17.6,31.4,42,56.5,70.4,74.5l4-19.7C85.1,353.1,65,331.6,50.3,305.3z"></path><path class="endTxt" d="M25.8,258.5l-1.7,0.4l-1.1-4.8l-1.9,0.5l1,4.4l-1.5,0.4l-1-4.4l-2.2,0.5l1.1,4.9l-1.7,0.4l-1.6-6.9 l9-2.1L25.8,258.5z M27.8,265.4l-4.8,5.5l0,0l6-1.8l0.6,1.8l-8.9,2.7l-0.6-2l4.8-5.5l0,0l-5.9,1.8l-0.6-1.8l8.9-2.7 L27.8,265.4z M32.7,279.9c0.2,0.6,0.3,1.1,0.3,1.7c0,0.5-0.1,1.1-0.3,1.6s-0.6,0.9-1,1.3c-0.5,0.4-1,0.7-1.8,1 c-0.6,0.2-1.2,0.4-1.8,0.4s-1.1,0-1.7-0.2c-0.5-0.2-1-0.5-1.4-0.9s-0.7-0.9-1-1.6l-1.4-3.7l8.7-3.3L32.7,279.9z M25.5,282.4 c0.1,0.3,0.2,0.5,0.4,0.8c0.2,0.2,0.4,0.4,0.7,0.5c0.3,0.1,0.6,0.2,1,0.2s0.8-0.1,1.3-0.3c0.4-0.2,0.8-0.4,1.1-0.6s0.6-0.5,0.7-0.8 c0.2-0.3,0.3-0.6,0.3-1s-0.1-0.8-0.2-1.3l-0.5-1.4l-5.5,2.1L25.5,282.4z M36.7,296.3c0.6-0.1,1.2,0,1.8,0.1s1.1,0.4,1.6,0.8s0.9,0.9,1.2,1.5s0.5,1.3,0.5,1.9 s-0.1,1.2-0.3,1.7s-0.5,1-1,1.5c-0.4,0.5-1,0.8-1.6,1.1c-0.6,0.3-1.2,0.5-1.8,0.6s-1.2,0-1.8-0.1s-1.1-0.4-1.6-0.8 s-0.9-0.9-1.2-1.5s-0.5-1.3-0.5-1.9s0-1.2,0.3-1.7c0.2-0.5,0.5-1,1-1.5c0.4-0.5,0.9-0.8,1.5-1.1C35.5,296.6,36.1,296.4,36.7,296.3z M34.8,299.4c-0.3,0.2-0.5,0.5-0.7,0.8s-0.3,0.6-0.3,1s0.1,0.8,0.3,1.2c0.2,0.4,0.5,0.7,0.8,0.9s0.6,0.3,1,0.4c0.3,0,0.7,0,1.1-0.1 c0.4-0.1,0.7-0.2,1.1-0.4c0.4-0.2,0.7-0.4,1-0.7c0.3-0.2,0.5-0.5,0.7-0.9s0.3-0.6,0.3-1s-0.1-0.8-0.3-1.2c-0.2-0.4-0.5-0.7-0.8-0.9 c-0.3-0.2-0.6-0.3-1-0.4s-0.7,0-1.1,0.1c-0.4,0.1-0.8,0.2-1.1,0.4C35.4,298.9,35.1,299.1,34.8,299.4z M49,312.9l-1.5,0.9l-2.3-3.9l-1.8,1.1l2,3.3l-1.4,0.8l-2-3.3l-3.3,2l-1-1.8l8-4.7L49,312.9z M56.9,324.8l-6.1,4.5l2.7,3.7l-1.4,1l-3.9-5.3l7.5-5.5L56.9,324.8z M63.9,333.9l-7.2,5.8l-1.3-1.6l7.2-5.8L63.9,333.9z M71.7,343l-1.3,1.1l-3-3.4l-1.6,1.4l2.6,2.9l-1.2,1l-2.6-2.9l-2.9,2.5l-1.4-1.5l6.9-6.2L71.7,343z M80,351.4l-1.2,1.2l-3.5-3.5l-1.4,1.4l3.2,3.2l-1.1,1.1l-3.2-3.2l-1.6,1.6l3.6,3.5l-1.2,1.2l-5-5 l6.6-6.6L80,351.4z"></path><path class="endIcon" d="M72.7,252.5l2.8,2.2l-2.7,5.1c-1.3,2.3,1,4.6,2.4,5.4s3.7,0.9,5.7,0.8l3.7-6.1l2.8,1.5l-4.9-9.1 L72.7,252.5z M73.1,264.9l6.1,11.2c1.2,1.6,3.5,1.9,5.9,1.9h6.4v-10.6l-12.1-0.1C77.5,267.4,75,267,73.1,264.9z M111.3,244.3 l-3.3,1.4l-3.2-4.8c-1.4-2.3-4.5-1.4-5.9-0.5s-2.5,2.8-3.5,4.6l3.5,6.2l-2.7,1.7l10.3,0.1L111.3,244.3z M100.2,238.6l-12.7-0.1 c-2,0.3-3.4,2.1-4.5,4.3l-3.1,5.6l9.3,5.1l6-10.6C95.9,241.2,97.4,239.2,100.2,238.6z M100.7,281.8l0.4-3.6l5.7-0.4 c2.7-0.1,3.4-3.3,3.3-4.9s-1.2-3.6-2.3-5.3l-7.2,0.1l-0.2-3.2l-5.1,9L100.7,281.8z M111.1,274.9l6.3-11.1c0.7-1.9-0.2-4-1.5-6 l-3.4-5.4l-9,5.6l6.4,10.3C110.9,269.9,111.9,272.2,111.1,274.9z"></path></a></g><g><a aria-current="page" class="home active" href="/home"><title>Home</title><path class="arrows" d="M223.58,156.03l-10.47-10.81v5.86c-32.72,0.79-59.1,27.63-59.1,60.53c0,3.56,0.33,7.05,0.92,10.44l3.38-5.45 l5.34,3.08c-0.42-2.63-0.64-5.33-0.64-8.08c0-27.94,22.34-50.75,50.1-51.53v6.76L223.58,156.03z M264.89,237.52l13.55-6.55l-5.56-1.84c9.54-31.31-7.65-64.79-38.89-75.13c-3.38-1.12-6.79-1.9-10.2-2.41 l4.11,4.92l-4.61,4.1c2.63,0.43,5.26,1.07,7.87,1.93c26.53,8.78,41.15,37.16,33.17,63.76l-6.41-2.12L264.89,237.52z M263.73,240.93l-2.58-5.6c-1.18,2.39-2.55,4.72-4.14,6.96c-5.25,7.43-12.12,13.04-19.79,16.71l0.04-0.16 c-2.39,1.17-4.91,2.17-7.53,2.98c-4.92,1.51-9.9,2.24-14.79,2.26c-0.36,0-0.72-0.01-1.09-0.01c-0.3,0-0.61-0.01-0.91-0.02 c-0.56-0.02-1.13-0.05-1.69-0.09c-0.03,0-0.06,0-0.09-0.01c-4-0.29-7.99-1.04-11.88-2.27l-0.01,0.03 c-15.24-4.79-28.04-16.54-33.49-32.69l6.46-1.98l-13.4-6.85l-7.26,13.18l5.6-1.72c8.56,25.7,32.9,41.99,58.87,41.39 c0.42-0.01,0.85-0.01,1.27-0.03c0.25-0.01,0.51-0.03,0.76-0.04c17.89-0.95,35.18-9.76,46.29-25.49c2.05-2.91,3.8-5.94,5.27-9.06 L263.73,240.93z"></path><circle class="circle" cx="215.3" cy="211.6" r="40.8"></circle><path class="mobile" d="M225.3,183.4h-20.5c-2,0-3.6,1.6-3.6,3.6v47.3c0,2,1.6,3.6,3.6,3.6h20.5c2,0,3.6-1.6,3.6-3.6 V187C228.9,185,227.3,183.4,225.3,183.4z M210,185.5h10.1c0.3,0,0.5,0.4,0.5,0.9s-0.2,0.9-0.5,0.9H210c-0.3,0-0.5-0.4-0.5-0.9 S209.7,185.5,210,185.5z M215.1,234.3c-1.2,0-2.3-1-2.3-2.3s1-2.3,2.3-2.3s2.3,1,2.3,2.3C217.3,233.3,216.3,234.3,215.1,234.3z M226.2,226.5h-22.3v-37.1h22.3C226.2,189.4,226.2,226.5,226.2,226.5z"></path></a></g></g></svg>