<?xml version="1.0" encoding="UTF-8" standalone="no"?>
<svg
   xmlns:dc="http://purl.org/dc/elements/1.1/"
   xmlns:cc="http://creativecommons.org/ns#"
   xmlns:rdf="http://www.w3.org/1999/02/22-rdf-syntax-ns#"
   xmlns:svg="http://www.w3.org/2000/svg"
   xmlns="http://www.w3.org/2000/svg"
   xmlns:sodipodi="http://sodipodi.sourceforge.net/DTD/sodipodi-0.dtd"
   xmlns:inkscape="http://www.inkscape.org/namespaces/inkscape"
   viewBox="0 0 70 65"
   className="scaling-svg"
   version="1.1"
   id="svg6"
   sodipodi:docname="design-icon.svg"
   width="70"
   height="65"
   inkscape:version="0.92.2 5c3e80d, 2017-08-06">
  <metadata
     id="metadata12">
    <rdf:RDF>
      <cc:Work
         rdf:about="">
        <dc:format>image/svg+xml</dc:format>
        <dc:type
           rdf:resource="http://purl.org/dc/dcmitype/StillImage" />
        <dc:title />
      </cc:Work>
    </rdf:RDF>
  </metadata>
  <defs
     id="defs10" />
  <sodipodi:namedview
     pagecolor="#ffffff"
     bordercolor="#666666"
     borderopacity="1"
     objecttolerance="10"
     gridtolerance="10"
     guidetolerance="10"
     inkscape:pageopacity="0"
     inkscape:pageshadow="2"
     inkscape:window-width="830"
     inkscape:window-height="754"
     id="namedview8"
     showgrid="false"
     inkscape:zoom="2.2211765"
     inkscape:cx="24.076297"
     inkscape:cy="56.108627"
     inkscape:window-x="661"
     inkscape:window-y="225"
     inkscape:window-maximized="0"
     inkscape:current-layer="svg6" />
  <g
     id="g4"
     transform="translate(-71.747547,-100.95806)">
    <path
       d="m 128.7,108.1 -4.8,3.6 -4.8,11.2 h -3.9 l -1.5,-3.3 h 1 c 1.8,0 3.3,-1.5 3.3,-3.3 V 113 h 1.6 v -4.9 h -4.9 v 4.9 h 1.6 v 3.3 c 0,0.9 -0.7,1.6 -1.6,1.6 H 113 l -2.1,-4.5 2.5,-1.3 -8.2,-3.5 -1.9,6.8 c -0.1,-4 -3.3,-7.3 -7.4,-7.3 -4.1,0 -7.4,3.3 -7.4,7.4 0,2.5 1.2,4.8 3.3,6.1 v 1.2 h -2 l -0.1,0.7 c -0.4,2.1 -0.4,4.2 -0.1,6.3 l -5.6,10 6.2,1.4 v 10.3 h 8.2 v 7.4 H 118 v -11.4 c 5.7,-4.1 9,-10.6 9,-17.6 v -3 c 0,-1.1 -0.1,-2.3 -0.3,-3.4 l -0.1,-0.7 H 125 l 3.7,-8.8 z m -12.3,3.3 v -1.6 h 1.6 v 1.6 z m -3,11.5 h -3.1 l -1.5,-3.3 h 3.1 z m -7.2,-12 3.3,1.4 -0.8,0.4 2.4,5.3 H 108 l -2,-4.4 -0.7,0.4 z m 2.3,12 h -3.6 v -1.6 c 0,-0.9 0.7,-1.7 1.6,-1.7 h 0.5 v 0 z m -3.2,-7.1 1,2.2 c -1.7,0.1 -3.1,1.5 -3.1,3.3 v 1.6 H 100 v -1.2 c 1.6,-1.1 2.8,-2.8 3.1,-4.7 z m -15.2,-0.3 c 0,-3.2 2.6,-5.7 5.7,-5.7 3.2,0 5.7,2.6 5.7,5.7 0,2 -1.1,3.9 -2.9,5 l -0.4,0.2 v 2.2 h -1.6 v -5.1 c 1,-0.3 1.6,-1.2 1.6,-2.3 0,-1.4 -1.1,-2.5 -2.5,-2.5 -1.4,0 -2.5,1.1 -2.5,2.5 0,1.1 0.7,2 1.6,2.3 v 5.1 h -1.6 v -2.2 l -0.4,-0.2 c -1.6,-1.1 -2.7,-3 -2.7,-5 z m 5.8,0.8 c -0.5,0 -0.8,-0.4 -0.8,-0.8 0,-0.5 0.4,-0.8 0.8,-0.8 0.5,0 0.8,0.4 0.8,0.8 0,0.4 -0.4,0.8 -0.8,0.8 z m 29.3,8.2 c 0.1,0.8 0.2,1.7 0.2,2.5 v 3 c 0,6.6 -3.2,12.7 -8.7,16.5 l -0.4,0.2 v 10.6 H 100 v -7.4 h -8.2 v -10 l -5.3,-1.2 4.8,-8.6 v -0.3 C 91,128 91,126.1 91.2,124.4 h 0.6 8.2 z m -2,-1.6 h -2.3 l 4.1,-9.5 1.8,0.9 z m 3.8,-10.4 -0.9,-0.5 0.9,-0.7 z m -29.5,16.9 c -1.4,0 -2.5,-0.8 -2.5,-2.5 h -1.6 c 0,2.5 1.8,4.1 4.1,4.1 2.3,0 4.1,-1.6 4.1,-4.1 H 100 c 0,1.7 -1.1,2.5 -2.5,2.5 z"
       id="path2"
       inkscape:connector-curvature="0"
       style="fill:#ffffff" />
  </g>
</svg>
