<?xml version="1.0" encoding="UTF-8" standalone="no"?>
<svg
   xmlns:dc="http://purl.org/dc/elements/1.1/"
   xmlns:cc="http://creativecommons.org/ns#"
   xmlns:rdf="http://www.w3.org/1999/02/22-rdf-syntax-ns#"
   xmlns:svg="http://www.w3.org/2000/svg"
   xmlns="http://www.w3.org/2000/svg"
   xmlns:sodipodi="http://sodipodi.sourceforge.net/DTD/sodipodi-0.dtd"
   xmlns:inkscape="http://www.inkscape.org/namespaces/inkscape"
   viewBox="0 0 70 65"
   className="scaling-svg"
   version="1.1"
   id="svg6"
   sodipodi:docname="end-of-life-icon.svg"
   width="70"
   height="65"
   inkscape:version="0.92.2 5c3e80d, 2017-08-06">
  <metadata
     id="metadata12">
    <rdf:RDF>
      <cc:Work
         rdf:about="">
        <dc:format>image/svg+xml</dc:format>
        <dc:type
           rdf:resource="http://purl.org/dc/dcmitype/StillImage" />
        <dc:title />
      </cc:Work>
    </rdf:RDF>
  </metadata>
  <defs
     id="defs10" />
  <sodipodi:namedview
     pagecolor="#ffffff"
     bordercolor="#666666"
     borderopacity="1"
     objecttolerance="10"
     gridtolerance="10"
     guidetolerance="10"
     inkscape:pageopacity="0"
     inkscape:pageshadow="2"
     inkscape:window-width="830"
     inkscape:window-height="754"
     id="namedview8"
     showgrid="false"
     inkscape:zoom="4.442353"
     inkscape:cx="37.859896"
     inkscape:cy="42.50687"
     inkscape:window-x="661"
     inkscape:window-y="225"
     inkscape:window-maximized="0"
     inkscape:current-layer="svg6" />
  <g
     id="g4"
     transform="matrix(1.1045186,0,0,1.1091738,-70.272517,-255.19506)">
    <path
       d="m 72.7,252.5 2.8,2.2 -2.7,5.1 c -1.3,2.3 1,4.6 2.4,5.4 1.4,0.8 3.7,0.9 5.7,0.8 l 3.7,-6.1 2.8,1.5 -4.9,-9.1 z m 0.4,12.4 6.1,11.2 c 1.2,1.6 3.5,1.9 5.9,1.9 h 6.4 v -10.6 l -12.1,-0.1 c -1.9,0.1 -4.4,-0.3 -6.3,-2.4 z m 38.2,-20.6 -3.3,1.4 -3.2,-4.8 c -1.4,-2.3 -4.5,-1.4 -5.9,-0.5 -1.4,0.9 -2.5,2.8 -3.5,4.6 l 3.5,6.2 -2.7,1.7 10.3,0.1 z m -11.1,-5.7 -12.7,-0.1 c -2,0.3 -3.4,2.1 -4.5,4.3 l -3.1,5.6 9.3,5.1 6,-10.6 c 0.7,-1.7 2.2,-3.7 5,-4.3 z m 0.5,43.2 0.4,-3.6 5.7,-0.4 c 2.7,-0.1 3.4,-3.3 3.3,-4.9 -0.1,-1.6 -1.2,-3.6 -2.3,-5.3 l -7.2,0.1 -0.2,-3.2 -5.1,9 z m 10.4,-6.9 6.3,-11.1 c 0.7,-1.9 -0.2,-4 -1.5,-6 l -3.4,-5.4 -9,5.6 6.4,10.3 c 1,1.6 2,3.9 1.2,6.6 z"
       id="path2"
       inkscape:connector-curvature="0"
       style="fill:#ffffff" />
  </g>
</svg>
