<?xml version="1.0" encoding="UTF-8" standalone="no"?>
<svg
   xmlns:dc="http://purl.org/dc/elements/1.1/"
   xmlns:cc="http://creativecommons.org/ns#"
   xmlns:rdf="http://www.w3.org/1999/02/22-rdf-syntax-ns#"
   xmlns:svg="http://www.w3.org/2000/svg"
   xmlns="http://www.w3.org/2000/svg"
   xmlns:sodipodi="http://sodipodi.sourceforge.net/DTD/sodipodi-0.dtd"
   xmlns:inkscape="http://www.inkscape.org/namespaces/inkscape"
   viewBox="0 0 70 65"
   className="scaling-svg"
   version="1.1"
   id="svg6"
   sodipodi:docname="resource.svg"
   width="70"
   height="65"
   inkscape:version="0.92.2 5c3e80d, 2017-08-06">
  <metadata
     id="metadata12">
    <rdf:RDF>
      <cc:Work
         rdf:about="">
        <dc:format>image/svg+xml</dc:format>
        <dc:type
           rdf:resource="http://purl.org/dc/dcmitype/StillImage" />
        <dc:title></dc:title>
      </cc:Work>
    </rdf:RDF>
  </metadata>
  <defs
     id="defs10" />
  <sodipodi:namedview
     pagecolor="#ffffff"
     bordercolor="#666666"
     borderopacity="1"
     objecttolerance="10"
     gridtolerance="10"
     guidetolerance="10"
     inkscape:pageopacity="0"
     inkscape:pageshadow="2"
     inkscape:window-width="640"
     inkscape:window-height="480"
     id="namedview8"
     showgrid="false"
     inkscape:zoom="0.55529412"
     inkscape:cx="212.5"
     inkscape:cy="212.5"
     inkscape:window-x="733"
     inkscape:window-y="620"
     inkscape:window-maximized="0"
     inkscape:current-layer="svg6" />
  <g
     id="g4"
     transform="translate(-300.74153,-129.53051)">
    <path
       d="m 328.4,163.7 c 4.3,0 7.8,-4.2 7.8,-9.4 0,-5.2 -1.1,-9.4 -7.8,-9.4 -6.7,0 -7.8,4.2 -7.8,9.4 0,5.1 3.5,9.4 7.8,9.4 z m 14.6,14 c -0.1,-9.1 -1.3,-11.7 -10.4,-13.3 0,0 -1.3,1.6 -4.3,1.6 -3,0 -4.3,-1.6 -4.3,-1.6 -9,1.6 -10.2,4.2 -10.4,13 0,0.7 0,0.8 0,0.7 0,0.2 0,0.4 0,1 0,0 2.2,4.4 14.7,4.4 12.5,0 14.7,-4.4 14.7,-4.4 0,-0.3 0,-0.6 0,-0.7 0.1,0 0.1,-0.1 0,-0.7 z m -1.3,-17.4 -1.5,-1.9 c -0.4,-0.5 -0.4,-0.8 1.3,-3.5 l -0.2,-0.6 c -2.4,-1.3 -2.6,-1.6 -2.7,-1.7 l -0.2,-0.3 v -0.4 l 0.3,-2.4 c 0.1,-0.7 0.3,-0.8 3.4,-1.6 l 0.3,-0.5 c -1,-3.1 -0.9,-3.4 -0.4,-3.8 l 1.9,-1.4 c 0.5,-0.4 0.8,-0.4 3.6,1.3 l 0.6,-0.1 c 1.4,-2.7 1.7,-3 2.4,-2.9 l 2.7,0.4 0.3,0.3 c 0.1,0.1 0.3,0.4 1,3.1 l 0.5,0.3 c 3,-0.9 3.3,-0.9 3.7,-0.3 l 1.5,1.9 c 0.4,0.5 0.4,0.8 -1.3,3.5 l 0.2,0.6 c 2.4,1.3 2.6,1.6 2.7,1.7 l 0.2,0.3 v 0.4 l -0.3,2.4 c -0.1,0.7 -0.3,0.8 -3.4,1.6 l -0.3,0.5 c 1,3.1 0.9,3.3 0.4,3.8 l -1.9,1.4 c -0.5,0.4 -0.8,0.4 -3.6,-1.3 l -0.6,0.1 c -1.5,2.8 -1.7,3 -2.4,2.9 l -2.7,-0.4 -0.3,-0.3 c -0.1,-0.1 -0.3,-0.4 -1,-3.1 l -0.5,-0.3 c -3,0.9 -3.3,0.8 -3.7,0.3 z m 0.4,-2.6 0.8,1 c 0.6,-0.1 1.6,-0.4 2.4,-0.7 l 0.4,-0.1 1.9,1.1 0.1,0.4 c 0.2,0.9 0.5,1.9 0.7,2.5 l 1.3,0.2 c 0.3,-0.5 0.8,-1.4 1.2,-2.2 l 0.2,-0.4 2.2,-0.6 0.3,0.2 c 0.8,0.5 1.7,1 2.2,1.3 l 1,-0.8 c -0.1,-0.6 -0.4,-1.6 -0.7,-2.4 l -0.1,-0.4 1.1,-1.9 0.4,-0.1 c 0.9,-0.2 1.9,-0.5 2.4,-0.6 l 0.2,-1.3 c -0.5,-0.3 -1.4,-0.8 -2.2,-1.3 l -0.4,-0.2 -0.6,-2.2 0.2,-0.3 c 0.5,-0.8 1,-1.7 1.3,-2.2 l -0.8,-1 c -0.6,0.1 -1.6,0.4 -2.4,0.7 l -0.4,0.1 -1.9,-1.1 -0.1,-0.4 c -0.2,-0.9 -0.5,-1.9 -0.7,-2.5 l -1.3,-0.2 c -0.3,0.5 -0.8,1.4 -1.2,2.2 l -0.2,0.4 -2.2,0.6 -0.3,-0.2 c -0.8,-0.5 -1.7,-1 -2.2,-1.3 l -1,0.8 c 0.1,0.6 0.4,1.6 0.7,2.4 l 0.1,0.4 -1.1,1.9 -0.4,0.1 c -0.9,0.2 -1.9,0.5 -2.4,0.6 l -0.2,1.3 c 0.5,0.3 1.4,0.8 2.2,1.3 l 0.4,0.2 0.6,2.2 -0.2,0.3 c -0.6,0.7 -1.1,1.6 -1.3,2.2 z m 4.6,-2.8 c -1.5,-1.9 -1.1,-4.7 0.8,-6.2 1.9,-1.5 4.7,-1.1 6.2,0.9 1.5,1.9 1.1,4.7 -0.8,6.2 -2,1.4 -4.7,1 -6.2,-0.9 z m 5.4,-4.2 c -0.9,-1.1 -2.4,-1.4 -3.5,-0.5 -1.1,0.8 -1.3,2.4 -0.4,3.5 0.9,1.1 2.4,1.4 3.5,0.5 1.1,-0.7 1.3,-2.3 0.4,-3.5 z m -2.4,20.9 -0.1,-0.1 -0.4,-1.2 c -0.2,-0.5 0.1,-0.8 1.1,-1.7 -0.2,-0.3 -0.6,-0.6 -0.8,-0.9 -0.3,-0.4 -0.2,-0.7 -0.1,-0.9 l 0.5,-1 c 0.3,-0.5 0.6,-0.5 2,-0.4 v 0 c 0,-1.3 0.1,-1.7 0.6,-1.9 l 1.1,-0.4 c 0.5,-0.2 0.8,0.1 1.7,1.1 v 0 c 1,-0.9 1.3,-1.2 1.8,-0.9 l 1.2,0.6 0.1,0.2 c 0.2,0.2 0.2,0.3 0.1,1.7 1.4,0 1.6,0.1 1.8,0.4 l 0.1,0.1 0.4,1.2 c 0.2,0.5 -0.1,0.8 -1.1,1.7 0.2,0.3 0.6,0.6 0.8,0.9 0.3,0.4 0.2,0.7 0.1,0.9 l -0.5,1 c -0.2,0.5 -0.6,0.5 -2,0.4 v 0 c 0,1.3 -0.1,1.7 -0.7,1.9 l -1.1,0.4 c -0.5,0.2 -0.8,-0.1 -1.7,-1.1 v 0 c -1,0.9 -1.3,1.2 -1.8,0.9 l -1.2,-0.6 -0.1,-0.2 c -0.2,-0.2 -0.2,-0.3 -0.1,-1.7 -1.3,-0.1 -1.5,-0.1 -1.7,-0.4 z m 0.7,-1.2 0.1,0.2 c 0.3,0 0.7,0 1.1,0 h 0.4 l 1,1.1 v 0.4 c 0,0.4 -0.1,0.8 -0.1,1.1 l 0.2,0.1 c 0.2,-0.2 0.5,-0.5 0.8,-0.7 l 0.3,-0.3 1.5,0.1 0.2,0.3 c 0.2,0.3 0.5,0.6 0.7,0.8 l 0.2,-0.1 c 0,-0.3 0,-0.7 0,-1.1 v -0.4 l 1.1,-1 h 0.4 c 0.4,0 0.8,0.1 1.1,0.1 l 0.1,-0.2 c -0.2,-0.2 -0.5,-0.6 -0.7,-0.8 l -0.3,-0.3 0.1,-1.5 0.3,-0.2 c 0.3,-0.2 0.6,-0.5 0.8,-0.7 l -0.1,-0.2 c -0.3,0 -0.7,0 -1.1,0 h -0.4 l -1,-1.1 v -0.4 c 0,-0.4 0.1,-0.8 0.1,-1.1 l -0.2,-0.1 c -0.2,0.2 -0.5,0.5 -0.8,0.7 l -0.3,0.3 -1.5,-0.1 -0.2,-0.3 c -0.2,-0.3 -0.5,-0.6 -0.7,-0.8 l -0.2,0.1 c 0,0.3 0,0.7 0,1.1 v 0.4 l -1.1,1 h -0.4 c -0.4,0 -0.8,-0.1 -1.1,-0.1 l -0.1,0.2 c 0.2,0.2 0.5,0.6 0.7,0.8 l 0.3,0.3 -0.1,1.5 -0.3,0.2 c -0.2,0.2 -0.5,0.5 -0.8,0.7 z m 2.7,-0.1 c -0.2,-0.2 -0.3,-0.4 -0.4,-0.7 -0.4,-1.3 0.3,-2.6 1.5,-3.1 1,-0.3 2.1,0 2.7,0.8 0.2,0.2 0.3,0.4 0.4,0.7 0.4,1.3 -0.3,2.6 -1.5,3.1 -1,0.4 -2.1,0.1 -2.7,-0.8 z m 2.7,-2 c -0.2,-0.3 -0.6,-0.4 -1,-0.3 -0.5,0.2 -0.7,0.6 -0.6,1.1 0.1,0.4 0.7,0.7 1.1,0.5 0.5,-0.2 0.7,-0.6 0.6,-1.1 0,0 -0.1,-0.1 -0.1,-0.2 z"
       id="path2"
       inkscape:connector-curvature="0"
       style="fill:#ffffff" />
  </g>
</svg>
