<?xml version="1.0" encoding="UTF-8" standalone="no"?>
<svg
   xmlns:dc="http://purl.org/dc/elements/1.1/"
   xmlns:cc="http://creativecommons.org/ns#"
   xmlns:rdf="http://www.w3.org/1999/02/22-rdf-syntax-ns#"
   xmlns:svg="http://www.w3.org/2000/svg"
   xmlns="http://www.w3.org/2000/svg"
   xmlns:sodipodi="http://sodipodi.sourceforge.net/DTD/sodipodi-0.dtd"
   xmlns:inkscape="http://www.inkscape.org/namespaces/inkscape"
   viewBox="0 0 70 65"
   className="scaling-svg"
   version="1.1"
   id="svg6"
   sodipodi:docname="transport-icon.svg"
   width="70"
   height="65"
   inkscape:version="0.92.2 5c3e80d, 2017-08-06">
  <metadata
     id="metadata12">
    <rdf:RDF>
      <cc:Work
         rdf:about="">
        <dc:format>image/svg+xml</dc:format>
        <dc:type
           rdf:resource="http://purl.org/dc/dcmitype/StillImage" />
        <dc:title />
      </cc:Work>
    </rdf:RDF>
  </metadata>
  <defs
     id="defs10" />
  <sodipodi:namedview
     pagecolor="#ffffff"
     bordercolor="#666666"
     borderopacity="1"
     objecttolerance="10"
     gridtolerance="10"
     guidetolerance="10"
     inkscape:pageopacity="0"
     inkscape:pageshadow="2"
     inkscape:window-width="830"
     inkscape:window-height="754"
     id="namedview8"
     showgrid="false"
     inkscape:zoom="1.1105882"
     inkscape:cx="-0.77110979"
     inkscape:cy="44.685704"
     inkscape:window-x="661"
     inkscape:window-y="225"
     inkscape:window-maximized="0"
     inkscape:current-layer="svg6" />
  <g
     id="g4"
     transform="matrix(1.0985146,0,0,1.0968198,-315.78701,-283.40035)">
    <path
       d="m 342.4,271.3 c -0.3,-0.3 -0.7,-0.5 -1.2,-0.5 h -27 c -0.5,0 -0.9,0.2 -1.2,0.5 -0.3,0.3 -0.5,0.7 -0.5,1.2 v 5.1 h -4.2 c -0.5,0 -1,0.1 -1.5,0.3 -0.6,0.2 -1,0.5 -1.3,0.8 l -5.2,5.2 c -0.2,0.2 -0.4,0.5 -0.6,0.8 -0.2,0.3 -0.3,0.6 -0.4,0.8 -0.1,0.2 -0.1,0.6 -0.2,1 0,0.4 -0.1,0.7 -0.1,0.9 0,0.2 0,0.5 0,1 0,0.5 0,0.8 0,0.9 v 8.4 c -0.5,0 -0.9,0.2 -1.2,0.5 -0.3,0.3 -0.5,0.7 -0.5,1.2 0,0.3 0,0.5 0.1,0.7 0.1,0.2 0.2,0.4 0.4,0.5 0.2,0.1 0.3,0.2 0.4,0.3 0.1,0.1 0.3,0.1 0.6,0.2 0.3,0 0.5,0 0.6,0.1 0.1,0 0.3,0 0.7,0 0.3,0 0.5,0 0.6,0 h 1.7 c 0,1.9 0.7,3.5 2,4.8 1.3,1.3 2.9,2 4.8,2 1.9,0 3.5,-0.7 4.8,-2 1.3,-1.3 2,-2.9 2,-4.8 h 10 c 0,1.9 0.7,3.5 2,4.8 1.3,1.3 2.9,2 4.8,2 1.9,0 3.5,-0.7 4.8,-2 1.3,-1.3 2,-2.9 2,-4.8 0.1,0 0.3,0 0.6,0 0.3,0 0.6,0 0.7,0 0.1,0 0.3,0 0.6,-0.1 0.3,0 0.5,-0.1 0.6,-0.2 0.1,-0.1 0.3,-0.2 0.4,-0.3 0.2,-0.1 0.3,-0.3 0.4,-0.5 0.1,-0.2 0.1,-0.4 0.1,-0.7 v -27 c -0.1,-0.4 -0.3,-0.8 -0.6,-1.1 z m -30.9,32.2 c -0.7,0.7 -1.5,1 -2.4,1 -0.9,0 -1.7,-0.3 -2.4,-1 -0.7,-0.7 -1,-1.5 -1,-2.4 0,-0.9 0.3,-1.7 1,-2.4 0.7,-0.7 1.5,-1 2.4,-1 0.9,0 1.7,0.3 2.4,1 0.7,0.7 1,1.5 1,2.4 0,0.9 -0.3,1.7 -1,2.4 z m 1,-15.9 h -10.1 v -0.8 c 0,-0.2 0.1,-0.4 0.2,-0.6 l 5.1,-5.1 c 0.2,-0.2 0.4,-0.2 0.6,-0.2 h 4.2 z m 22.6,15.9 c -0.7,0.7 -1.5,1 -2.4,1 -0.9,0 -1.7,-0.3 -2.4,-1 -0.7,-0.7 -1,-1.5 -1,-2.4 0,-0.9 0.3,-1.7 1,-2.4 0.7,-0.7 1.5,-1 2.4,-1 0.9,0 1.7,0.3 2.4,1 0.7,0.7 1,1.5 1,2.4 0,0.9 -0.3,1.7 -1,2.4 z"
       id="path2"
       inkscape:connector-curvature="0"
       style="fill:#333333" />
  </g>
</svg>
