<?xml version="1.0" encoding="UTF-8" standalone="no"?>
<svg
   xmlns:dc="http://purl.org/dc/elements/1.1/"
   xmlns:cc="http://creativecommons.org/ns#"
   xmlns:rdf="http://www.w3.org/1999/02/22-rdf-syntax-ns#"
   xmlns:svg="http://www.w3.org/2000/svg"
   xmlns="http://www.w3.org/2000/svg"
   xmlns:sodipodi="http://sodipodi.sourceforge.net/DTD/sodipodi-0.dtd"
   xmlns:inkscape="http://www.inkscape.org/namespaces/inkscape"
   viewBox="0 0 70 65"
   className="scaling-svg"
   version="1.1"
   id="svg6"
   sodipodi:docname="use-icon.svg"
   width="70"
   height="65"
   inkscape:version="0.92.2 5c3e80d, 2017-08-06">
  <metadata
     id="metadata12">
    <rdf:RDF>
      <cc:Work
         rdf:about="">
        <dc:format>image/svg+xml</dc:format>
        <dc:type
           rdf:resource="http://purl.org/dc/dcmitype/StillImage" />
        <dc:title />
      </cc:Work>
    </rdf:RDF>
  </metadata>
  <defs
     id="defs10" />
  <sodipodi:namedview
     pagecolor="#ffffff"
     bordercolor="#666666"
     borderopacity="1"
     objecttolerance="10"
     gridtolerance="10"
     guidetolerance="10"
     inkscape:pageopacity="0"
     inkscape:pageshadow="2"
     inkscape:window-width="830"
     inkscape:window-height="754"
     id="namedview8"
     showgrid="false"
     inkscape:zoom="3.1412179"
     inkscape:cx="38.704025"
     inkscape:cy="44.685704"
     inkscape:window-x="661"
     inkscape:window-y="225"
     inkscape:window-maximized="0"
     inkscape:current-layer="svg6" />
  <g
     id="g4"
     transform="translate(-166.74225,-313.00784)">
    <path
       d="m 222.4,356.2 -6.6,-14.5 c -0.5,-1 -1.4,-1.8 -2.4,-2.1 v -14.1 c 0,-1.8 -1.4,-3.2 -3.2,-3.2 h -21.6 c -1.8,0 -3.2,1.4 -3.2,3.2 v 38.9 c 0,1.8 1.4,3.2 3.2,3.2 h 21.6 c 0.1,0 0.3,0 0.4,0 l 2.2,1.3 c 0.4,0.3 0.9,0.4 1.4,0.4 1,0 1.8,-0.5 2.3,-1.3 l 5.7,-9.2 c 0.5,-0.8 0.5,-1.8 0.2,-2.6 z m -34.2,2 v -30.4 h 22.2 v 12.1 c -0.7,0.3 -1.2,0.9 -1.6,1.4 -0.5,0.8 -0.7,1.7 -0.6,2.5 l -7,-4.3 c -0.8,-0.4 -1.5,-0.6 -2.3,-0.6 -1.4,0 -2.7,0.7 -3.4,1.9 -1.2,1.9 -0.6,4.4 1.3,5.5 l 3.6,2.2 c -0.7,1.1 -0.8,2.4 -0.4,3.5 -0.2,0.2 -0.5,0.5 -0.6,0.8 -1,1.6 -0.7,3.5 0.5,4.8 -0.1,0.2 -0.1,0.4 -0.1,0.6 z m 13.7,4.7 c 0,1.4 -1.2,2.6 -2.6,2.6 -1.4,0 -2.6,-1.2 -2.6,-2.6 0,-1.4 1.2,-2.6 2.6,-2.6 0.3,0 0.6,0.1 0.9,0.2 0.3,0.6 0.8,1.2 1.5,1.6 h 0.1 c 0,0.3 0.1,0.5 0.1,0.8 z m 18.6,-5.1 -5.7,9.2 c -0.2,0.3 -0.4,0.4 -0.7,0.4 -0.1,0 -0.3,0 -0.4,-0.1 l -11.1,-6.8 c -0.8,-0.5 -1.1,-1.5 -0.9,-2.3 v 0 c 0.1,-0.2 0.1,-0.4 0.2,-0.6 0.1,-0.2 0.3,-0.4 0.5,-0.5 l -0.7,-0.4 c -1,-0.6 -1.3,-1.9 -0.7,-2.9 0.4,-0.6 1.1,-1 1.8,-1 0.4,0 0.7,0.1 1.1,0.3 l -1.2,-0.7 c -1,-0.6 -1.3,-1.9 -0.7,-2.9 0.4,-0.6 1.1,-1 1.8,-1 0.2,0 0.3,0 0.5,0.1 l -6.4,-3.9 c -1,-0.6 -1.3,-1.9 -0.7,-2.9 0.4,-0.6 1,-1 1.7,-1 0.4,0 0.7,0.1 1.1,0.3 l 11.6,7.2 h 0.1 0.1 c 0,-0.1 0,-0.1 0,-0.2 l -1.7,-3.8 c -0.3,-0.7 -0.2,-1.4 0.1,-2 0.1,-0.1 0.1,-0.2 0.2,-0.2 v 0.1 c 0.2,-0.3 0.4,-0.5 0.8,-0.6 0.7,-0.3 1.6,-0.2 2.2,0.3 v 0 c 0.2,0.2 0.4,0.4 0.5,0.6 l 6.6,14.5 c 0.1,0.2 0.1,0.5 0,0.8 z"
       id="path2"
       inkscape:connector-curvature="0"
       style="fill: black" />
  </g>
</svg>
